<svg xmlns="http://www.w3.org/2000/svg" viewBox="0 0 175.13 91.96"><defs><style>.cls-1{fill:#fff;}</style></defs><title>bg2</title><g id="layer_1" data-name="layer 1"><path class="cls-1" d="M179.66,105.6a158.21,158.21,0,0,0-12.61-17.8c-1.72.23-3.44.43-5.07.62a64.38,64.38,0,0,0-8.3,1.27,3,3,0,0,0-1.77,2.78,11.53,11.53,0,0,0,.55,3.28.73.73,0,0,1-.21.75c-4.21,3.68-12.77,6.93-17.5,8.55-1,.33-1.94.65-2.92,1a81.2,81.2,0,0,1-14.48,3.39,1.61,1.61,0,0,1-1.12-.34,8.63,8.63,0,0,1-3.19-7.24,2.4,2.4,0,0,1,1.43-2.18c1.76-.76,5-1.82,9.21-3.15,7.77-2.48,18.41-5.89,25.77-9.64,4.48-2.29,9.54-3,14.32-3.32a2.85,2.85,0,0,1,.59-3c.84-.86,2.4-1.14,4,.18.91.76,1.79,1.54,2.68,2.33,5.17-.4,9.45-1.24,11.66-4.59a1.46,1.46,0,0,1,2-.6,1.56,1.56,0,0,1,.51,2.16c-1.65,3.3-5.72,5.18-10.54,6.38a134.41,134.41,0,0,1,11.78,13,133.22,133.22,0,0,1,11.79-13c-4.82-1.2-8.9-3.08-10.54-6.38a1.55,1.55,0,0,1,.51-2.16,1.45,1.45,0,0,1,2,.6c2.22,3.35,6.5,4.19,11.67,4.59.88-.79,1.77-1.57,2.67-2.33,1.56-1.32,3.12-1,4-.18a2.85,2.85,0,0,1,.59,3c4.78.35,9.83,1,14.31,3.32,7.36,3.75,18,7.16,25.78,9.64,4.16,1.33,7.44,2.39,9.2,3.15a2.4,2.4,0,0,1,1.43,2.18,8.61,8.61,0,0,1-3.19,7.24,1.58,1.58,0,0,1-1.11.34A80.82,80.82,0,0,1,241,106c-1-.3-2-.62-2.93-1-4.73-1.62-13.29-4.87-17.49-8.55a.71.71,0,0,1-.22-.75,11.57,11.57,0,0,0,.56-3.28,3,3,0,0,0-1.77-2.78,65,65,0,0,0-8.3-1.27c-1.64-.19-3.35-.39-5.07-.62a158.29,158.29,0,0,0-12.62,17.8l.66,0A157.74,157.74,0,0,1,206,88.4c1.62.22,3.22.41,4.76.58A64.84,64.84,0,0,1,219,90.24a2.46,2.46,0,0,1,1.35,2.22,11.08,11.08,0,0,1-.53,3.12,1.29,1.29,0,0,0,.38,1.35c4.28,3.74,12.92,7,17.69,8.65.95.33,1.94.65,2.94,1a79.49,79.49,0,0,0,14.6,3.4h.18a2.11,2.11,0,0,0,1.33-.46,9.17,9.17,0,0,0,3.41-7.69,3,3,0,0,0-1.77-2.7c-1.79-.78-5.08-1.83-9.26-3.17-7.75-2.48-18.37-5.88-25.69-9.61-4.36-2.22-9.22-3-13.86-3.33a3.36,3.36,0,0,0-.9-2.84,3,3,0,0,0-2.17-.89,4.08,4.08,0,0,0-2.57,1c-.84.71-1.67,1.45-2.5,2.18-4.9-.39-9-1.22-11-4.3a2.07,2.07,0,0,0-1.77-1.05,2,2,0,0,0-1,.25,2.13,2.13,0,0,0-.74,2.91c1.62,3.25,5.4,5.17,9.93,6.42A134.16,134.16,0,0,0,186.4,98.49a134.16,134.16,0,0,0-10.67-11.78c4.53-1.25,8.32-3.17,9.93-6.42a2.13,2.13,0,0,0-.74-2.91,1.92,1.92,0,0,0-1-.25,2.08,2.08,0,0,0-1.76,1c-2,3.1-6.09,3.93-11,4.32-.83-.73-1.66-1.47-2.5-2.18a4.06,4.06,0,0,0-2.57-1,3,3,0,0,0-2.17.89,3.36,3.36,0,0,0-.9,2.84c-4.63.37-9.49,1.11-13.85,3.33-7.33,3.73-17.94,7.13-25.71,9.62-4.17,1.33-7.46,2.38-9.24,3.16a3,3,0,0,0-1.78,2.7,9.19,9.19,0,0,0,3.41,7.69,2.15,2.15,0,0,0,1.33.46h.18a79.73,79.73,0,0,0,14.61-3.4c1-.32,2-.64,2.94-1,4.77-1.62,13.4-4.91,17.68-8.65a1.31,1.31,0,0,0,.39-1.35,11.12,11.12,0,0,1-.54-3.12,2.47,2.47,0,0,1,1.36-2.22A64.35,64.35,0,0,1,162,89c1.54-.17,3.15-.36,4.76-.58A157.81,157.81,0,0,1,179,105.62Z" transform="translate(-98.92 -77.13)"/><path class="cls-1" d="M204.7,130c1.21,2.93,2.3,5.87,3.2,8.8a8,8,0,0,1,.37,3.68,4.3,4.3,0,0,1-2.88,3.48c-3,1-7.17-.65-8.71-4.75s-3.15-8-4.78-11.81h-.63q2.5,5.75,4.88,12a8.12,8.12,0,0,0,7.43,5.4,5.93,5.93,0,0,0,2-.32,4.83,4.83,0,0,0,3.26-3.92,8.51,8.51,0,0,0-.38-3.94c-.89-2.86-1.94-5.72-3.12-8.59Z" transform="translate(-98.92 -77.13)"/><path class="cls-1" d="M180.91,129.41q-2.46,5.64-4.78,11.8c-1.55,4.1-5.76,5.76-8.71,4.75a4.3,4.3,0,0,1-2.89-3.48,8.12,8.12,0,0,1,.37-3.68c.91-2.93,2-5.86,3.2-8.79l-.63.05c-1.18,2.85-2.23,5.72-3.11,8.57a8.67,8.67,0,0,0-.39,3.94,4.86,4.86,0,0,0,3.26,3.92,5.93,5.93,0,0,0,2,.32,8.12,8.12,0,0,0,7.44-5.4q2.37-6.28,4.87-12Z" transform="translate(-98.92 -77.13)"/><path class="cls-1" d="M152.12,88.61a1,1,0,0,1-.29-.09A1,1,0,0,0,152.12,88.61Z" transform="translate(-98.92 -77.13)"/><path class="cls-1" d="M150.53,93.29a10.81,10.81,0,0,0-.67-1.2c-.12-.19-.25-.39-.39-.57a2.63,2.63,0,0,0-.5-.5,2.27,2.27,0,0,0-1.35-.44,2.85,2.85,0,0,0-.71.12l-.65.25-2.56,1-5.13,1.94c-1.71.64-3.43,1.28-5.15,1.89q-5.14,1.89-10.38,3.52-2.62.81-5.26,1.53l-1.33.36c-.22.06-.44.11-.66.18a1.88,1.88,0,0,0-.63.32,1.91,1.91,0,0,0-.72,1.16,3.16,3.16,0,0,0,0,1.37,3.07,3.07,0,0,1,0-1.35,1.88,1.88,0,0,1,.72-1.1,2.34,2.34,0,0,1,.6-.28l.67-.16,1.33-.31c1.78-.44,3.55-.91,5.31-1.43s3.5-1.06,5.24-1.64,3.47-1.17,5.19-1.79q5.16-1.89,10.25-3.92l2.55-1,.63-.25a2.27,2.27,0,0,1,.63-.12,2.13,2.13,0,0,1,1.71.82c.14.17.28.36.41.54a10.64,10.64,0,0,1,.7,1.17,14.57,14.57,0,0,1,1,2.54A12.65,12.65,0,0,0,150.53,93.29Z" transform="translate(-98.92 -77.13)"/><path class="cls-1" d="M179.64,81.89a9.26,9.26,0,0,0,2.58-1.77,7.57,7.57,0,0,0,.53-.6c.17-.2.32-.43.48-.63a.91.91,0,0,1,.62-.43.67.67,0,0,1,.39.07.44.44,0,0,1,.21.33.4.4,0,0,0-.2-.34.68.68,0,0,0-.39-.11,1.07,1.07,0,0,0-.69.42l-.24.31a3.61,3.61,0,0,1-.25.3,7.27,7.27,0,0,1-.54.57,10,10,0,0,1-2.55,1.72,25.86,25.86,0,0,1-6.06,1.73c1.07-.16,2.12-.33,3.14-.57A13.84,13.84,0,0,0,179.64,81.89Z" transform="translate(-98.92 -77.13)"/><path class="cls-1" d="M178.34,82.64a9.24,9.24,0,0,0,4-2.32A22.41,22.41,0,0,1,178.34,82.64Z" transform="translate(-98.92 -77.13)"/><path class="cls-1" d="M116.3,101.54a3.6,3.6,0,0,0-1.09.5,1.11,1.11,0,0,0-.39.47,1.23,1.23,0,0,0-.08.6,1.19,1.19,0,0,1,.1-.59,1.1,1.1,0,0,1,.39-.44,3.56,3.56,0,0,1,1.08-.46c.77-.21,1.54-.35,2.31-.51a45.84,45.84,0,0,0,4.55-1.14c3-.87,5.89-1.8,8.79-2.79s5.77-2.07,8.63-3.25c.72-.29,1.44-.6,2.16-.91s1.43-.61,2.14-1a14.33,14.33,0,0,1,2.18-.91,2.32,2.32,0,0,1,1.17,0,1.86,1.86,0,0,1,.94.7,1.9,1.9,0,0,0-.92-.73,2.29,2.29,0,0,0-1.19,0,13.07,13.07,0,0,0-2.21.84c-.71.32-1.43.61-2.15.9l-2.16.86c-2.87,1.12-5.75,2.16-8.64,3.16s-5.82,2-8.78,2.89c-1.48.48-3,.89-4.52,1.24C117.84,101.14,117.06,101.3,116.3,101.54Z" transform="translate(-98.92 -77.13)"/><path class="cls-1" d="M114.34,100.4a6,6,0,0,1,.56-.3c.39-.17.79-.32,1.18-.46.8-.28,1.61-.51,2.42-.74l4.81-1.31q1.2-.33,2.37-.72L128,96.1q2.32-.76,4.65-1.57c3.08-1.07,6.15-2.21,9.19-3.5s6.08-2.71,9.11-4.32c-3.05,1.49-6.09,2.84-9.15,4.06q-2.28.92-4.59,1.76t-4.61,1.65L128,95.78l-2.34.79c-.78.27-1.56.53-2.35.76-1.59.48-3.2.92-4.81,1.42-.8.25-1.61.51-2.4.81a12.27,12.27,0,0,0-1.18.5,6.22,6.22,0,0,0-.56.32,1.27,1.27,0,0,0-.46.46A1.24,1.24,0,0,1,114.34,100.4Z" transform="translate(-98.92 -77.13)"/><path class="cls-1" d="M152,89.86a2.48,2.48,0,0,0-.62,1,4.89,4.89,0,0,0-.17,2.25,13.05,13.05,0,0,1,.49-2.13,3.64,3.64,0,0,1,.49-.91,2.13,2.13,0,0,1,.84-.69A1.84,1.84,0,0,0,152,89.86Z" transform="translate(-98.92 -77.13)"/><path class="cls-1" d="M151.47,90.41c.14-.2.27-.4.45-.64a1.08,1.08,0,0,0-.73.43A1.11,1.11,0,0,0,151,91C151.18,90.79,151.33,90.6,151.47,90.41Z" transform="translate(-98.92 -77.13)"/><path class="cls-1" d="M131.77,97.68c4.56-1.6,9.06-3.4,13.68-5.48-4.67,1.85-9.19,3.54-13.75,5.14s-9.18,3.13-14,4.62C122.57,100.7,127.2,99.28,131.77,97.68Z" transform="translate(-98.92 -77.13)"/><path class="cls-1" d="M139.2,95.09c-4.95,1.91-9.54,3.54-14.66,5.19A66.77,66.77,0,0,0,139.2,95.09Z" transform="translate(-98.92 -77.13)"/><path class="cls-1" d="M134.65,104A110.91,110.91,0,0,1,117,108.55a90.1,90.1,0,0,0,17.69-4.23,89.8,89.8,0,0,0,16.5-7.7A111,111,0,0,1,134.65,104Z" transform="translate(-98.92 -77.13)"/><path class="cls-1" d="M203.11,141.38a.87.87,0,0,1-.54-.52.86.86,0,0,1,0-.75,1,1,0,0,1,.68-.54,1,1,0,0,0-.9.39,1,1,0,0,0-.12,1,1,1,0,0,0,.31.44,1,1,0,0,0,.49.21,1,1,0,0,0,.93-.35A1,1,0,0,1,203.11,141.38Z" transform="translate(-98.92 -77.13)"/><path class="cls-1" d="M169.53,86.17a.5.5,0,0,1-.1-.39.61.61,0,0,1,.29-.41.57.57,0,0,0-.53.32.62.62,0,0,0,.07.68.64.64,0,0,0,.64.25.58.58,0,0,0,.45-.43.6.6,0,0,1-.47.17A.51.51,0,0,1,169.53,86.17Z" transform="translate(-98.92 -77.13)"/><path class="cls-1" d="M220.69,88.61a1,1,0,0,0,.29-.09A1,1,0,0,1,220.69,88.61Z" transform="translate(-98.92 -77.13)"/><path class="cls-1" d="M258.37,102.82a2,2,0,0,0-.73-1.16,1.83,1.83,0,0,0-.62-.32l-.67-.18L255,100.8c-1.76-.48-3.52-1-5.26-1.53q-5.24-1.63-10.39-3.52c-1.72-.61-3.43-1.25-5.15-1.89l-5.13-1.94-2.56-1-.65-.25a2.85,2.85,0,0,0-.71-.12,2.22,2.22,0,0,0-1.34.44,2.37,2.37,0,0,0-.5.5c-.14.18-.27.38-.4.57a10.81,10.81,0,0,0-.67,1.2,14,14,0,0,0-.91,2.59,14.61,14.61,0,0,1,1-2.54,10.64,10.64,0,0,1,.7-1.17c.13-.18.26-.37.41-.54a2,2,0,0,1,.47-.45,2.09,2.09,0,0,1,1.23-.37,2.2,2.2,0,0,1,.63.12l.64.25,2.54,1q5.1,2,10.26,3.92,2.58.93,5.19,1.79c1.73.58,3.48,1.14,5.24,1.64s3.52,1,5.3,1.43l1.34.31.66.16a2.19,2.19,0,0,1,.6.28,1.94,1.94,0,0,1,.73,1.1,3.23,3.23,0,0,1,0,1.35A3.33,3.33,0,0,0,258.37,102.82Z" transform="translate(-98.92 -77.13)"/><path class="cls-1" d="M188.57,78.53a.62.62,0,0,1,.38-.07.93.93,0,0,1,.63.43c.16.2.31.43.47.63a7.7,7.7,0,0,0,.54.6,9.07,9.07,0,0,0,2.57,1.77,14.22,14.22,0,0,0,3,1c1,.24,2.07.41,3.15.57a25.72,25.72,0,0,1-6.06-1.73A9.83,9.83,0,0,1,190.66,80c-.19-.18-.36-.37-.54-.57s-.16-.2-.24-.3-.16-.21-.25-.31a1,1,0,0,0-.68-.42.71.71,0,0,0-.4.11.42.42,0,0,0-.2.34A.43.43,0,0,1,188.57,78.53Z" transform="translate(-98.92 -77.13)"/><path class="cls-1" d="M190.47,80.32a9.24,9.24,0,0,0,4,2.32A21.73,21.73,0,0,1,190.47,80.32Z" transform="translate(-98.92 -77.13)"/><path class="cls-1" d="M224.55,91.1a1.92,1.92,0,0,0-.93.73,1.89,1.89,0,0,1,.95-.7,2.32,2.32,0,0,1,1.17,0,13.81,13.81,0,0,1,2.17.91c.71.35,1.44.65,2.15,1s1.43.62,2.15.91c2.87,1.18,5.74,2.25,8.64,3.25s5.81,1.92,8.79,2.79a45.65,45.65,0,0,0,4.54,1.14c.77.16,1.55.3,2.31.51a3.61,3.61,0,0,1,1.09.46,1.18,1.18,0,0,1,.39.44,1.31,1.31,0,0,1,.09.59,1.23,1.23,0,0,0-.08-.6,1.17,1.17,0,0,0-.38-.47,3.84,3.84,0,0,0-1.09-.5c-.77-.24-1.55-.4-2.32-.58-1.53-.35-3-.76-4.52-1.24-3-.94-5.88-1.89-8.77-2.89s-5.77-2-8.65-3.16l-2.15-.86c-.72-.29-1.45-.58-2.15-.9a13.4,13.4,0,0,0-2.21-.84A2.29,2.29,0,0,0,224.55,91.1Z" transform="translate(-98.92 -77.13)"/><path class="cls-1" d="M240.14,94.53q2.31.81,4.65,1.57l2.33.77c.78.26,1.58.5,2.37.72l4.82,1.31c.8.23,1.61.46,2.41.74.4.14.8.29,1.18.46a5.12,5.12,0,0,1,.57.3,1.21,1.21,0,0,1,.46.44,1.32,1.32,0,0,0-.45-.46,6.22,6.22,0,0,0-.56-.32c-.39-.19-.78-.35-1.18-.5-.8-.3-1.6-.56-2.41-.81-1.61-.5-3.22-.94-4.81-1.42-.79-.23-1.57-.49-2.35-.76l-2.34-.79-4.64-1.6q-2.31-.8-4.62-1.65T231,90.77q-4.57-1.83-9.14-4.06c3,1.61,6,3,9.1,4.32S237.05,93.46,240.14,94.53Z" transform="translate(-98.92 -77.13)"/><path class="cls-1" d="M221.39,90.83a2.51,2.51,0,0,0-.63-1,1.84,1.84,0,0,0-1-.51,2.28,2.28,0,0,1,.84.69,3.64,3.64,0,0,1,.49.91,14.18,14.18,0,0,1,.49,2.13A5,5,0,0,0,221.39,90.83Z" transform="translate(-98.92 -77.13)"/><path class="cls-1" d="M221.8,91a1.11,1.11,0,0,0-.19-.83,1.06,1.06,0,0,0-.72-.43c.18.24.3.44.44.64S221.63,90.79,221.8,91Z" transform="translate(-98.92 -77.13)"/><path class="cls-1" d="M241.11,97.34c-4.57-1.6-9.09-3.29-13.76-5.14,4.63,2.08,9.12,3.88,13.69,5.48s9.2,3,14.11,4.28C250.28,100.47,245.67,99,241.11,97.34Z" transform="translate(-98.92 -77.13)"/><path class="cls-1" d="M248.26,100.28c-5.11-1.65-9.7-3.28-14.66-5.19A67,67,0,0,0,248.26,100.28Z" transform="translate(-98.92 -77.13)"/><path class="cls-1" d="M238.16,104a110.09,110.09,0,0,1-16.55-7.36,89.41,89.41,0,0,0,16.49,7.7,90,90,0,0,0,17.7,4.23A110.36,110.36,0,0,1,238.16,104Z" transform="translate(-98.92 -77.13)"/><path class="cls-1" d="M169.75,141.63a1,1,0,0,0,.49-.21,1.16,1.16,0,0,0,.32-.44,1.05,1.05,0,0,0,.07-.53,1,1,0,0,0-.2-.49,1,1,0,0,0-.9-.39,1,1,0,0,1,.69.54.93.93,0,0,1,0,.75.89.89,0,0,1-.55.52,1,1,0,0,1-.86-.1A1,1,0,0,0,169.75,141.63Z" transform="translate(-98.92 -77.13)"/><path class="cls-1" d="M203.55,86.37a.64.64,0,0,0,.07-.68.57.57,0,0,0-.54-.32.55.55,0,0,1,.29.41.5.5,0,0,1-.1.39.49.49,0,0,1-.34.19.63.63,0,0,1-.48-.17.6.6,0,0,0,.46.43A.64.64,0,0,0,203.55,86.37Z" transform="translate(-98.92 -77.13)"/><path class="cls-1" d="M129.85,152.68a4.92,4.92,0,0,0-2-.93,4.52,4.52,0,0,0-3.78.73,5.79,5.79,0,0,0-2.22,3.48l0,.15a5.49,5.49,0,0,0,.46,4.11,4.62,4.62,0,0,0,3.19,2.31,5.07,5.07,0,0,0,2.32,0,4.22,4.22,0,0,0,1.65-.74l.39-1.87-1-.22c-.2.47-.39,1-.59,1.42a2.69,2.69,0,0,1-1.07.35,4,4,0,0,1-1.41-.08,3,3,0,0,1-2.23-1.75,4.94,4.94,0,0,1-.2-3.21l0-.17a4.9,4.9,0,0,1,1.6-2.78,3.15,3.15,0,0,1,2.83-.61,3.55,3.55,0,0,1,1.18.48,3,3,0,0,1,.75.75c0,.51,0,1,0,1.54l1,.21c.13-.62.26-1.24.38-1.87A4.32,4.32,0,0,0,129.85,152.68Z" transform="translate(-98.92 -77.13)"/><path class="cls-1" d="M140,154.31c-.06.31-.11.61-.16.92l1.17.41-1,6a2.25,2.25,0,0,1-1.06,1.7,3,3,0,0,1-2.1.27,2.8,2.8,0,0,1-1.77-1,2.31,2.31,0,0,1-.37-1.95c.38-2,.75-4,1.13-6l1.24,0c.06-.3.12-.61.17-.92-.88-.16-1.76-.32-2.64-.5l-1.2-.23-.18.92,1.16.44-1.17,6a3.2,3.2,0,0,0,.63,2.85,4.55,4.55,0,0,0,2.8,1.47,4.91,4.91,0,0,0,3.24-.39,3.18,3.18,0,0,0,1.61-2.45c.33-2,.66-4,1-6.05h1.24l.15-.92-1.2-.2Z" transform="translate(-98.92 -77.13)"/><path class="cls-1" d="M144.93,157.52l1.26.19c.1-.4.19-.8.29-1.2l2.4.34c-.39,2.79-.77,5.58-1.16,8.37l-1.27,0c0,.31-.09.61-.14.92q2,.29,4,.54l.12-.92-1.22-.36,1.11-8.38,2.4.3c0,.42,0,.83,0,1.24l1.26.15.27-2.36q-4.47-.52-8.94-1.21Z" transform="translate(-98.92 -77.13)"/><path class="cls-1" d="M159.94,156.84a4.53,4.53,0,0,0-2.88.55,2.55,2.55,0,0,0-1.31,2,2.43,2.43,0,0,0,.76,2.08,6.58,6.58,0,0,0,2.61,1.47,5,5,0,0,1,1.93,1,1.56,1.56,0,0,1,.46,1.28,1.44,1.44,0,0,1-.77,1.2,3.12,3.12,0,0,1-1.85.29,4.27,4.27,0,0,1-1.43-.36,3.62,3.62,0,0,1-1-.68c0-.52-.09-1-.13-1.56l-1.13-.12c-.07.66-.14,1.32-.22,2a4.62,4.62,0,0,0,1.52,1.23,5.92,5.92,0,0,0,2.26.64,4.78,4.78,0,0,0,3-.52,2.41,2.41,0,0,0,1.28-2,2.61,2.61,0,0,0-.74-2.1,6.17,6.17,0,0,0-2.53-1.47,6.06,6.06,0,0,1-2-1,1.37,1.37,0,0,1-.52-1.23,1.53,1.53,0,0,1,.76-1.2,2.88,2.88,0,0,1,1.84-.31,4.22,4.22,0,0,1,1.28.31,2.49,2.49,0,0,1,.85.54l.15,1.55,1.12.1c.05-.67.11-1.33.16-2a4.76,4.76,0,0,0-1.42-1.07A5.59,5.59,0,0,0,159.94,156.84Z" transform="translate(-98.92 -77.13)"/><path class="cls-1" d="M166.15,158.14a3.71,3.71,0,0,1-.27,1.17,4.23,4.23,0,0,1-.61,1l.8.6a3.55,3.55,0,0,0,1.08-1.22,3.73,3.73,0,0,0,.47-1.5l.09-1.35-1.46-.1C166.22,157.22,166.18,157.68,166.15,158.14Z" transform="translate(-98.92 -77.13)"/><path class="cls-1" d="M176.26,158.08l0,.93,1.21.25q-.12,3.56-.22,7.12h-.05q-2.55-4.21-4.95-8.49l-1.46-.07-1.21-.08-.06.94,1.2.28q-.23,4.22-.47,8.44l-1.27.13c0,.31,0,.62,0,.92,1.34.09,2.69.16,4,.22,0-.31,0-.62,0-.93l-1.24-.26.36-7.13h0q2.43,4.28,5,8.49l1.52,0c.09-3.2.17-6.39.25-9.59l1.22-.17c0-.32,0-.63,0-.94l-1.21,0Z" transform="translate(-98.92 -77.13)"/><path class="cls-1" d="M191.1,163a6.38,6.38,0,0,1-2.11-.79,1.4,1.4,0,0,1-.65-1.16,1.53,1.53,0,0,1,.62-1.29,2.93,2.93,0,0,1,1.79-.52,4.62,4.62,0,0,1,1.3.16,2.86,2.86,0,0,1,.91.44c.11.51.21,1,.32,1.53l1.12,0-.06-2a4.69,4.69,0,0,0-1.53-.9,5.58,5.58,0,0,0-2.08-.34,4.56,4.56,0,0,0-2.8.87,2.56,2.56,0,0,0-1.07,2.11,2.41,2.41,0,0,0,1,2,6.54,6.54,0,0,0,2.75,1.16,5,5,0,0,1,2,.8,1.56,1.56,0,0,1,.6,1.22,1.42,1.42,0,0,1-.63,1.27,3.13,3.13,0,0,1-1.8.51,4.26,4.26,0,0,1-1.46-.2,3.94,3.94,0,0,1-1.06-.56l-.3-1.54h-1.13c0,.66,0,1.33,0,2a4.73,4.73,0,0,0,1.64,1.05,6,6,0,0,0,2.32.37,4.83,4.83,0,0,0,2.88-.85,2.42,2.42,0,0,0,1-2.12,2.61,2.61,0,0,0-1-2A6.06,6.06,0,0,0,191.1,163Z" transform="translate(-98.92 -77.13)"/><path class="cls-1" d="M206.6,167.07l-.63-8.42,1.2-.3c0-.32,0-.63-.07-.94l-1.21.1-1.47.1-1.21.08.06.94,1.23.12c.09,1.23.17,2.47.26,3.7-1.78.12-3.56.23-5.34.31-.06-1.23-.13-2.46-.19-3.7l1.21-.27c0-.31,0-.62-.05-.93-1.3.07-2.59.13-3.89.18,0,.31,0,.62,0,.94l1.22.15c.13,2.82.25,5.63.37,8.45l-1.24.25,0,.93c1.35,0,2.7-.11,4.05-.19,0-.31,0-.62-.05-.92l-1.27-.15-.18-3.59c1.79-.09,3.58-.2,5.37-.32.08,1.2.16,2.39.25,3.59l-1.25.29.06.93,4-.29c0-.31-.05-.62-.07-.93Z" transform="translate(-98.92 -77.13)"/><path class="cls-1" d="M219.53,165.9q-2.5-4.58-4.87-9.19l-1.25.13q-1.4,5-2.92,10l-.82.18c0,.31.05.62.07.93l3.22-.29-.09-.93-.86-.06.57-2c1.49-.14,3-.29,4.45-.46.31.62.63,1.25,1,1.88l-.83.23c0,.31.07.62.1.92,1.07-.12,2.15-.24,3.22-.38l-.12-.92Zm-6.6-2.51c.43-1.59.85-3.17,1.26-4.76h.05c.72,1.46,1.45,2.93,2.19,4.39Z" transform="translate(-98.92 -77.13)"/><path class="cls-1" d="M225.48,155.32c.05.31.09.62.14.93h1q-.68,3.63-1.42,7.26c0,.29-.09.58-.13.88H225c-.12-.27-.24-.53-.37-.8q-1.72-3.28-3.39-6.57l1-.29-.13-.93c-1.13.16-2.27.3-3.4.44,0,.31.08.62.11.93h.88q2.41,4.57,5,9.1l1.3-.18q1.19-5.06,2.23-10.13l.84-.25c0-.31-.09-.62-.14-.92Z" transform="translate(-98.92 -77.13)"/><path class="cls-1" d="M239.1,161.25c.06.48.11,1,.16,1.44-1.48.29-3,.56-4.45.83-.23-1.26-.45-2.52-.68-3.78,1.4-.25,2.79-.51,4.18-.78l-.21-1.12c-1.39.27-2.78.53-4.17.77-.2-1.14-.4-2.27-.61-3.41l4.23-.79.39,1.38,1.26-.24-.51-2.53q-4.09.82-8.22,1.51c.06.31.11.62.16.92h1.24l1.44,8.33-1.21.42.15.91q4.32-.72,8.63-1.59l-.51-2.52Z" transform="translate(-98.92 -77.13)"/><path class="cls-1" d="M249.21,156.84a6.26,6.26,0,0,0-2.88-.6,6.3,6.3,0,0,1-2.23-.34,1.41,1.41,0,0,1-.88-1,1.55,1.55,0,0,1,.35-1.38,2.89,2.89,0,0,1,1.66-.87,4.15,4.15,0,0,1,1.32-.11,2.66,2.66,0,0,1,1,.24l.63,1.43,1.1-.26c-.16-.65-.31-1.29-.47-1.94a4.87,4.87,0,0,0-1.69-.57,5.48,5.48,0,0,0-2.12.09A4.62,4.62,0,0,0,242.4,153a2.55,2.55,0,0,0-.63,2.27,2.42,2.42,0,0,0,1.38,1.74,6.66,6.66,0,0,0,2.94.57,5,5,0,0,1,2.17.37,1.54,1.54,0,0,1,.84,1.07,1.48,1.48,0,0,1-.36,1.38,3.19,3.19,0,0,1-1.68.86,4.57,4.57,0,0,1-1.48.1,4,4,0,0,1-1.15-.33l-.61-1.45-1.11.24c.14.65.27,1.3.41,1.95a4.55,4.55,0,0,0,1.83.7,6.17,6.17,0,0,0,2.36-.11,4.87,4.87,0,0,0,2.67-1.42,2.45,2.45,0,0,0,.6-2.29A2.64,2.64,0,0,0,249.21,156.84Z" transform="translate(-98.92 -77.13)"/><path class="cls-1" d="M155.26,120.63l-1.06.13c.09.76.19,1.52.28,2.27a.7.7,0,0,1-.06.41.5.5,0,0,1-.74.09.61.61,0,0,1-.17-.37l-.06-.48a5.28,5.28,0,0,0-.28-1.17,2,2,0,0,0-.54-.84,2.17,2.17,0,0,0-.9-.49,3.8,3.8,0,0,0-1.36-.11l0-.11a3.23,3.23,0,0,0,2.29-1.29,3.72,3.72,0,0,0,.45-2.5,4.44,4.44,0,0,0-.43-1.46,2.69,2.69,0,0,0-1-1,4.07,4.07,0,0,0-1.63-.54,9.49,9.49,0,0,0-2.4.07c-3.36.49-6.71,1-10.06,1.64l.6,3.29a2.44,2.44,0,0,1,1.22,0,.86.86,0,0,1,.49.73c.27,1.5.53,3,.8,4.5a.88.88,0,0,1-.21.84,2.46,2.46,0,0,1-1.12.42l.6,3.29c2.68-.49,5.35-.93,8-1.33-.17-1.11-.33-2.21-.5-3.31a1.69,1.69,0,0,1-1-.06.82.82,0,0,1-.37-.64c-.07-.43-.14-.85-.2-1.28l.22,0a2.86,2.86,0,0,1,.75,0,1,1,0,0,1,.54.25,1.55,1.55,0,0,1,.38.65,6.62,6.62,0,0,1,.25,1.14c0,.23.07.46.1.69a4.38,4.38,0,0,0,.32,1.1,2.23,2.23,0,0,0,.67.85,2.58,2.58,0,0,0,1.15.48,5.46,5.46,0,0,0,1.76,0,6.25,6.25,0,0,0,1.76-.45,3.07,3.07,0,0,0,1.09-.77,2.38,2.38,0,0,0,.53-1,3.46,3.46,0,0,0,.06-1.21C155.45,122.15,155.36,121.39,155.26,120.63Zm-7.71-1.57a1.35,1.35,0,0,1-1,.52l-.82.12c-.14-.92-.28-1.84-.43-2.77l.83-.13a1.44,1.44,0,0,1,1.14.17,1.66,1.66,0,0,1,.45,1A1.59,1.59,0,0,1,147.55,119.06Z" transform="translate(-98.92 -77.13)"/><path class="cls-1" d="M250.66,121.56A6,6,0,0,0,249.5,119a7.39,7.39,0,0,0-2.29-1.88,12.66,12.66,0,0,0-6.65-1.41,7.44,7.44,0,0,0-2.85.8,5.8,5.8,0,0,0-2.09,1.85,7.15,7.15,0,0,0-1.13,2.89,7.35,7.35,0,0,0,0,3.11,6.08,6.08,0,0,0,1.23,2.46,7.26,7.26,0,0,0,2.24,1.79,11.4,11.4,0,0,0,3.08,1.08,11.91,11.91,0,0,0,3.25.26,7.32,7.32,0,0,0,2.77-.73,6.1,6.1,0,0,0,2.13-1.76,8.1,8.1,0,0,0,1.43-5.92Zm-6-.12a14.83,14.83,0,0,1-.31,1.8,15.56,15.56,0,0,1-.47,1.77,4.17,4.17,0,0,1-.54,1.1,1.39,1.39,0,0,1-.7.52,1.85,1.85,0,0,1-.91,0,1.81,1.81,0,0,1-.85-.38,1.48,1.48,0,0,1-.42-.76,4.32,4.32,0,0,1-.05-1.23,17.24,17.24,0,0,1,.29-1.8,17.54,17.54,0,0,1,.44-1.77,4,4,0,0,1,.54-1.12,1.41,1.41,0,0,1,.69-.52,1.93,1.93,0,0,1,1,0,2,2,0,0,1,.86.39,1.46,1.46,0,0,1,.43.77A3.7,3.7,0,0,1,244.66,121.44Z" transform="translate(-98.92 -77.13)"/><path class="cls-1" d="M266.5,123.37a3.81,3.81,0,0,0-1.23-1.28,7.42,7.42,0,0,0-2.22-1c-3.35-1-6.71-1.86-10.09-2.7-.27,1.08-.53,2.17-.8,3.25a2.5,2.5,0,0,1,1.12.5.84.84,0,0,1,.15.87l-1.12,4.42a.87.87,0,0,1-.54.69,2.44,2.44,0,0,1-1.19-.08c-.27,1.08-.54,2.17-.8,3.25,2.91.72,5.82,1.49,8.71,2.31.3-1.07.61-2.14.91-3.22l-.91-.26a1.2,1.2,0,0,1-.8-.49,1.05,1.05,0,0,1,0-.79c.05-.17.09-.35.14-.52l2.94.83a9.33,9.33,0,0,0,2.31.4,3.63,3.63,0,0,0,1.68-.33,2.87,2.87,0,0,0,1.15-1,5.52,5.52,0,0,0,.74-1.58,5.94,5.94,0,0,0,.29-1.76A3.19,3.19,0,0,0,266.5,123.37Zm-5.41,2.18a1.69,1.69,0,0,1-.58.92,1.3,1.3,0,0,1-1.17.08l-1-.27c.26-.93.51-1.87.77-2.8l1,.28a1.27,1.27,0,0,1,.95.71A1.72,1.72,0,0,1,261.09,125.55Z" transform="translate(-98.92 -77.13)"/><path class="cls-1" d="M226.35,113.21c-.16,1.11-.31,2.21-.47,3.31a1.71,1.71,0,0,1,1,.36.8.8,0,0,1,.18.73l-.21,1.44-3.21-.46c.06-.48.13-1,.19-1.44a.81.81,0,0,1,.38-.65,1.71,1.71,0,0,1,1-.08c.16-1.1.31-2.2.47-3.31q-4.23-.6-8.48-1.07c-.12,1.11-.25,2.22-.37,3.33a2.46,2.46,0,0,1,1.17.34.86.86,0,0,1,.26.85c-.17,1.51-.35,3-.53,4.53a.83.83,0,0,1-.44.75,2.43,2.43,0,0,1-1.18.08c-.12,1.11-.25,2.22-.37,3.33q4,.44,8.07,1c.16-1.1.32-2.2.47-3.31a1.68,1.68,0,0,1-.94-.34.84.84,0,0,1-.18-.72c.08-.56.16-1.11.23-1.67l3.19.46c-.08.55-.16,1.11-.25,1.66a.79.79,0,0,1-.37.64,1.69,1.69,0,0,1-1,.07l-.48,3.31q4,.58,8,1.29c.19-1.1.38-2.2.58-3.29A2.47,2.47,0,0,1,232,124a.87.87,0,0,1-.2-.85c.25-1.5.51-3,.76-4.5a.86.86,0,0,1,.49-.73,2.49,2.49,0,0,1,1.21,0c.2-1.1.39-2.19.58-3.29C232,114.07,229.17,113.62,226.35,113.21Z" transform="translate(-98.92 -77.13)"/><path class="cls-1" d="M208.68,114.14a1.94,1.94,0,0,1,1-.14,3,3,0,0,1,.94.24,3.4,3.4,0,0,1,.81.52,2.93,2.93,0,0,1,.57.74,2.16,2.16,0,0,1,.25.89c1,.09,2.07.2,3.11.31.16-1.6.33-3.2.5-4.8l-3.15-.32c0,.28-.06.56-.08.84a7.71,7.71,0,0,0-1.63-.86,8.68,8.68,0,0,0-2.58-.54,7.44,7.44,0,0,0-2.12.11,5.68,5.68,0,0,0-1.8.66,4,4,0,0,0-1.28,1.2,3.46,3.46,0,0,0-.54,1.71,3.78,3.78,0,0,0,.43,2.18,4.47,4.47,0,0,0,1.3,1.4,6.8,6.8,0,0,0,1.74.89l1.75.61a7,7,0,0,1,1.33.59.83.83,0,0,1,.48.81.71.71,0,0,1-.38.54,1.69,1.69,0,0,1-1,.16,3,3,0,0,1-2.72-2.48l-3.06-.2c-.1,1.64-.19,3.27-.29,4.91l3,.19.06-.79a8.25,8.25,0,0,0,3.94,1.35,10.06,10.06,0,0,0,2.13,0,5.91,5.91,0,0,0,1.87-.53,3.77,3.77,0,0,0,1.38-1.11,3.41,3.41,0,0,0,.67-1.77,4.31,4.31,0,0,0-.14-1.76,3.75,3.75,0,0,0-.73-1.3,4.34,4.34,0,0,0-1.14-.94,9.92,9.92,0,0,0-1.34-.68c-.46-.19-.91-.36-1.36-.5s-.85-.29-1.19-.43a3.26,3.26,0,0,1-.84-.46.7.7,0,0,1-.28-.63A.67.67,0,0,1,208.68,114.14Z" transform="translate(-98.92 -77.13)"/><path class="cls-1" d="M138.45,124.78a1.91,1.91,0,0,1-.56,0,.74.74,0,0,1-.38-.12,1.15,1.15,0,0,1-.27-.27c-.09-.11-.18-.24-.28-.39-.91-1.38-1.84-2.75-2.77-4.11a.92.92,0,0,1-.23-.73q.09-.28.78-.42l.19,0c-.22-1.09-.43-2.19-.64-3.28-3.24.63-6.48,1.32-9.7,2.07.25,1.09.5,2.17.76,3.26l.19-.05q.67-.15.87.06a1,1,0,0,1,.1.77c-.29,1.62-.57,3.25-.85,4.88a3,3,0,0,1-.25.83,1.16,1.16,0,0,1-.82.46l-.37.09c.26,1.09.53,2.17.79,3.25q2.79-.68,5.58-1.29l-.72-3.27-.52.12a.78.78,0,0,1-.74-.1.67.67,0,0,1-.16-.62c0-.14,0-.27,0-.41q1.44-.33,2.88-.63l.21.35a.68.68,0,0,1,.11.64.87.87,0,0,1-.65.4l-.5.11c.24,1.09.48,2.18.71,3.27,2.72-.6,5.45-1.14,8.18-1.65l-.6-3.29Zm-9.8-.75c.12-1,.24-1.94.37-2.91l.07,0c.51.83,1,1.67,1.51,2.51Z" transform="translate(-98.92 -77.13)"/><path class="cls-1" d="M122.16,125.75a3.91,3.91,0,0,0-2.72-.19l0-.1c2-.7,2.75-2,2.29-3.83a5.32,5.32,0,0,0-.44-1.17,2.24,2.24,0,0,0-.82-.88,3.09,3.09,0,0,0-1.41-.41,6.5,6.5,0,0,0-2.16.27q-5.46,1.44-10.89,3.11l1,3.19a2.61,2.61,0,0,1,1.21-.15.84.84,0,0,1,.58.67l1.32,4.37a.85.85,0,0,1-.11.87,2.62,2.62,0,0,1-1.06.55c.32,1.06.65,2.13,1,3.19q4.86-1.49,9.75-2.79a9.43,9.43,0,0,0,2.48-1,4,4,0,0,0,1.26-1.14,2.33,2.33,0,0,0,.4-1.24,5,5,0,0,0-.16-1.28A2.93,2.93,0,0,0,122.16,125.75Zm-8.25-2,1.39-.38a1,1,0,0,1,.92.12,1.41,1.41,0,0,1,.47.74,1.37,1.37,0,0,1,0,.9,1,1,0,0,1-.73.57l-1.38.38C114.34,125.27,114.12,124.49,113.91,123.71Zm4.08,5.42a1.56,1.56,0,0,1-1,.56l-1.34.37c-.24-.82-.47-1.65-.7-2.48l1.36-.37a1.47,1.47,0,0,1,1.13,0,1.39,1.39,0,0,1,.55.88A1.35,1.35,0,0,1,118,129.13Z" transform="translate(-98.92 -77.13)"/><path class="cls-1" d="M170.26,123.09a2.33,2.33,0,0,0,.6-1.15,5.09,5.09,0,0,0,.08-1.29,3,3,0,0,0-1.07-2.31,3.91,3.91,0,0,0-2.62-.68v-.09c2.06-.34,3-1.44,2.92-3.37A4.87,4.87,0,0,0,170,113a2.29,2.29,0,0,0-.65-1,3.24,3.24,0,0,0-1.3-.65,6.54,6.54,0,0,0-2.16-.12q-5.59.42-11.18,1.09c.13,1.1.26,2.21.4,3.32a2.46,2.46,0,0,1,1.21.07.88.88,0,0,1,.45.76c.17,1.51.34,3,.5,4.54a.83.83,0,0,1-.26.83,2.28,2.28,0,0,1-1.13.34l.39,3.33c3.33-.4,6.67-.72,10-1a9.41,9.41,0,0,0,2.59-.5A4,4,0,0,0,170.26,123.09Zm-8.09-8.24,1.43-.12a1,1,0,0,1,.88.28,1.46,1.46,0,0,1,.33.82,1.51,1.51,0,0,1-.19.88,1,1,0,0,1-.81.42l-1.42.13C162.32,116.46,162.25,115.65,162.17,114.85Zm3,6.06a1.53,1.53,0,0,1-1,.39c-.46,0-.92.08-1.38.12-.07-.86-.15-1.71-.23-2.57l1.39-.12a1.13,1.13,0,0,1,1.48,1.18A1.28,1.28,0,0,1,165.19,120.91Z" transform="translate(-98.92 -77.13)"/><path class="cls-1" d="M201.79,121.45c.05-.76.09-1.52.13-2.28l-1.07-.06-.12,2.29a.62.62,0,0,1-.13.38.49.49,0,0,1-.74,0,.57.57,0,0,1-.1-.39c0-.16,0-.32,0-.48a5.1,5.1,0,0,0-.07-1.2,2.17,2.17,0,0,0-.38-.92,2.28,2.28,0,0,0-.8-.65,4.09,4.09,0,0,0-1.32-.34v-.11a3.21,3.21,0,0,0,2.47-.87,3.68,3.68,0,0,0,.88-2.38,4.39,4.39,0,0,0-.17-1.52,2.65,2.65,0,0,0-.76-1.2,4,4,0,0,0-1.51-.81,8.92,8.92,0,0,0-2.36-.35q-5.08-.17-10.17-.14c0,1.12,0,2.23,0,3.35a2.45,2.45,0,0,1,1.2.2.87.87,0,0,1,.35.81v4.57a.85.85,0,0,1-.35.79,2.39,2.39,0,0,1-1.17.22c0,1.11,0,2.23,0,3.34,2.71,0,5.41,0,8.12.09l.09-3.34a1.72,1.72,0,0,1-1-.24.83.83,0,0,1-.25-.7c0-.43,0-.86,0-1.28h.23a3,3,0,0,1,.74.1.9.9,0,0,1,.49.34,1.55,1.55,0,0,1,.26.7,7.84,7.84,0,0,1,.05,1.17c0,.23,0,.46,0,.7a4.21,4.21,0,0,0,.12,1.13,2.24,2.24,0,0,0,.51,1,2.5,2.5,0,0,0,1,.67,5.68,5.68,0,0,0,1.74.3,6.5,6.5,0,0,0,1.8-.14,3,3,0,0,0,1.21-.57,2.37,2.37,0,0,0,.7-.91A3.46,3.46,0,0,0,201.79,121.45Zm-7.17-5.18a1.36,1.36,0,0,1-1.1.34l-.82,0,.06-2.81.83,0a1.47,1.47,0,0,1,1.09.37,1.6,1.6,0,0,1,.26,1.1A1.57,1.57,0,0,1,194.62,116.27Z" transform="translate(-98.92 -77.13)"/><path class="cls-1" d="M184.87,118.75l-3.25,0a5.57,5.57,0,0,1,0,.78,1.05,1.05,0,0,1-.2.49.82.82,0,0,1-.41.25,3.14,3.14,0,0,1-.63.08l-1.66,0c0-.86-.06-1.73-.08-2.59l3-.08c0-.53,0-1.06,0-1.59l-3,.07c0-.8-.05-1.6-.08-2.4l1.71,0a2.52,2.52,0,0,1,.65,0,.82.82,0,0,1,.42.23.9.9,0,0,1,.22.47,4.1,4.1,0,0,1,.08.79c1.1,0,2.2,0,3.3,0,0-1.64,0-3.28,0-4.91q-6.84,0-13.67.44l.19,3.34a2.41,2.41,0,0,1,1.2.15.84.84,0,0,1,.41.78c.07,1.52.15,3,.23,4.56a.86.86,0,0,1-.31.82,2.41,2.41,0,0,1-1.15.27c.06,1.12.13,2.23.19,3.34q6.49-.37,13-.42C184.9,122,184.88,120.39,184.87,118.75Z" transform="translate(-98.92 -77.13)"/><path class="cls-1" d="M105.9,140.85l.2.64.21.63a260,260,0,0,1,61.16-12.06l.63-.05c-1.21,2.93-2.29,5.86-3.2,8.79a8.12,8.12,0,0,0-.37,3.68,4.3,4.3,0,0,0,2.89,3.48c3,1,7.16-.65,8.71-4.75s3.14-8,4.78-11.8l.62,0q4.88-.09,9.74,0h.63c1.63,3.77,3.22,7.69,4.78,11.81s5.75,5.76,8.71,4.75a4.3,4.3,0,0,0,2.88-3.48,8,8,0,0,0-.37-3.68c-.9-2.93-2-5.87-3.2-8.8l.63,0a260.79,260.79,0,0,1,61.33,12.08l.42-1.27h0A259.19,259.19,0,0,0,105.9,140.85Zm99.36,4.72c-2.78,1-6.74-.62-8.2-4.5-1.54-4.06-3.11-7.93-4.72-11.66l.69,0c.52,1.15,1,2.3,1.52,3.46.3.72.61,1.45.92,2.17s.59,1.46.89,2.19a33.13,33.13,0,0,0,2,4.35,8.06,8.06,0,0,0,1.5,1.89,4.89,4.89,0,0,0,2.13,1.13,4.78,4.78,0,0,1-2.06-1.18,8,8,0,0,1-1.42-1.9,19,19,0,0,1-1-2.15l-.42-1.1c-.13-.37-.27-.74-.41-1.11-.28-.74-.55-1.48-.83-2.21s-.58-1.46-.86-2.18c-.44-1.13-.91-2.23-1.38-3.34h.24c1.53,3.57,3,7.27,4.5,11.16a6.3,6.3,0,0,0,6.25,4.22,3.19,3.19,0,0,0,3-2.71,6.88,6.88,0,0,0-.33-3.14c-.93-3-2.06-6-3.32-9l.31,0q1.88,4.47,3.28,8.95C208.55,142.24,207.7,144.73,205.26,145.57Zm-.93-4.84a1.14,1.14,0,1,1-.94-1.31A1.15,1.15,0,0,1,204.33,140.73Zm-.06.92a1.53,1.53,0,0,0-.81-2.63,1.58,1.58,0,0,0-1.11.25,1.54,1.54,0,1,1,1.92,2.38Zm-36.72,3.92c-2.45-.84-3.29-3.33-2.26-6.65.92-3,2-6,3.27-8.94l.31,0c-1.26,3-2.38,6-3.32,9a6.88,6.88,0,0,0-.33,3.14,3.2,3.2,0,0,0,3,2.71,6.28,6.28,0,0,0,6.24-4.22c1.47-3.89,3-7.59,4.5-11.16h.24c-.46,1.1-.93,2.2-1.37,3.33L177,135c-.27.73-.55,1.47-.83,2.21-.13.37-.27.74-.41,1.11s-.27.74-.42,1.1a17.38,17.38,0,0,1-1,2.15,7.69,7.69,0,0,1-1.41,1.9,4.84,4.84,0,0,1-2.06,1.18,4.8,4.8,0,0,0,2.12-1.13,7.81,7.81,0,0,0,1.5-1.89,33.19,33.19,0,0,0,2-4.35c.29-.73.59-1.46.89-2.19s.61-1.45.92-2.17c.48-1.16,1-2.31,1.51-3.45l.69,0c-1.61,3.72-3.18,7.59-4.71,11.65C174.28,145,170.33,146.53,167.55,145.57Zm1.59-6.72a1.54,1.54,0,0,1,1.32.42,1.6,1.6,0,0,0-1.12-.25,1.55,1.55,0,0,0-1.26,1.78,1.47,1.47,0,0,0,.45.85,1.53,1.53,0,0,1-.66-1A1.55,1.55,0,0,1,169.14,138.85Zm-.66,1.88a1.14,1.14,0,1,1,1.31.94A1.13,1.13,0,0,1,168.48,140.73Z" transform="translate(-98.92 -77.13)"/><path class="cls-1" d="M273.64,120.65h0l.41-1.27a282.74,282.74,0,0,0-80.25-13.76l-.66,0a158.29,158.29,0,0,1,12.62-17.8c1.72.23,3.43.43,5.07.62a65,65,0,0,1,8.3,1.27,3,3,0,0,1,1.77,2.78,11.57,11.57,0,0,1-.56,3.28.71.71,0,0,0,.22.75c4.2,3.68,12.76,6.93,17.49,8.55,1,.33,1.95.65,2.93,1a80.82,80.82,0,0,0,14.48,3.39,1.58,1.58,0,0,0,1.11-.34,8.61,8.61,0,0,0,3.19-7.24,2.4,2.4,0,0,0-1.43-2.18c-1.76-.76-5-1.82-9.2-3.15-7.77-2.48-18.42-5.89-25.78-9.64-4.48-2.29-9.53-3-14.31-3.32a2.85,2.85,0,0,0-.59-3c-.85-.86-2.41-1.14-4,.18-.9.76-1.79,1.54-2.67,2.33-5.17-.4-9.45-1.24-11.67-4.59a1.45,1.45,0,0,0-2-.6,1.55,1.55,0,0,0-.51,2.16c1.64,3.3,5.72,5.18,10.54,6.38a133.22,133.22,0,0,0-11.79,13,134.41,134.41,0,0,0-11.78-13c4.82-1.2,8.89-3.08,10.54-6.38a1.56,1.56,0,0,0-.51-2.16,1.46,1.46,0,0,0-2,.6c-2.21,3.35-6.49,4.19-11.66,4.59-.89-.79-1.77-1.57-2.68-2.33-1.56-1.32-3.12-1-4-.18a2.85,2.85,0,0,0-.59,3c-4.78.35-9.84,1-14.32,3.32-7.36,3.75-18,7.16-25.77,9.64-4.16,1.33-7.45,2.39-9.21,3.15a2.4,2.4,0,0,0-1.43,2.18,8.63,8.63,0,0,0,3.19,7.24,1.61,1.61,0,0,0,1.12.34A81.2,81.2,0,0,0,131.83,106c1-.3,2-.62,2.92-1,4.73-1.62,13.29-4.87,17.5-8.55a.73.73,0,0,0,.21-.75,11.53,11.53,0,0,1-.55-3.28,3,3,0,0,1,1.77-2.78,64.38,64.38,0,0,1,8.3-1.27c1.63-.19,3.35-.39,5.07-.62a158.21,158.21,0,0,1,12.61,17.8l-.65,0a283.12,283.12,0,0,0-80.09,13.76l.21.63.18.56,0,.08h0A280.24,280.24,0,0,1,273.64,120.65ZM152,96.2c-6.73,5.89-27.38,12.19-34.67,12.78a1.14,1.14,0,0,1-.82-.24,8.26,8.26,0,0,1-3-6.92,2,2,0,0,1,1.2-1.82c1.73-.75,5-1.8,9.16-3.13,7.79-2.49,18.45-5.9,25.84-9.67a24.48,24.48,0,0,1,3.84-1.55,46.11,46.11,0,0,1,10.46-1.74,4.05,4.05,0,0,0,.54.83l.93,1.1-.3,0c-1.71.16-3.42.35-5.14.63a36,36,0,0,0-5.17,1.19,44.27,44.27,0,0,1,5.19-.93c1.71-.22,3.41-.38,5.12-.55l.56,0,.15.17h0c-2.32.24-4.64.43-7,.77-.58.09-1.17.16-1.76.29l-.88.17-.87.22-.44.12-.43.14c-.28.1-.57.19-.85.3a6.68,6.68,0,0,1-.87.26,2,2,0,0,1-.59,0,2,2,0,0,0,.6,0,4.56,4.56,0,0,0,.88-.23l.86-.26.43-.12.43-.1.87-.19.88-.14c.58-.11,1.17-.16,1.75-.24,2.33-.28,4.65-.45,7-.68l.3,0c0,.07.11.13.16.19-.61.07-1.22.14-1.83.19-1.82.15-3.66.24-5.49.49-.91.12-1.83.28-2.74.47-.45.09-.9.2-1.35.31s-.91.23-1.35.36a4.31,4.31,0,0,1-1.32.27.81.81,0,0,1-.55-.23.72.72,0,0,1-.16-.57,1.77,1.77,0,0,1,.66-1.12,4,4,0,0,1,1.2-.66,20.76,20.76,0,0,1,2.72-.8c.92-.22,1.86-.4,2.81-.56q-1.43.19-2.82.48a19.74,19.74,0,0,0-2.74.73,4.77,4.77,0,0,0-1.27.65,2,2,0,0,0-.77,1.22,1,1,0,0,0,.18.74,1,1,0,0,0,.31.25,1.56,1.56,0,0,0,.37.1,2,2,0,0,0,.73-.06l.67-.18c.89-.24,1.79-.45,2.69-.63s1.8-.33,2.71-.44c1.81-.23,3.64-.32,5.47-.47.71-.06,1.42-.14,2.13-.23l.24.29c-1.63.22-3.25.41-4.81.59a64.4,64.4,0,0,0-8.36,1.28,3.4,3.4,0,0,0-2.07,3.18,11.87,11.87,0,0,0,.58,3.38A.34.34,0,0,1,152,96.2Zm12.81-11.73a2.63,2.63,0,0,1-.15-3.62c.67-.68,2-1,3.42.2a130.39,130.39,0,0,1,18.08,18.66l-.2.24A130.76,130.76,0,0,0,168.05,81.5a1.92,1.92,0,0,0-1.87-.55,1.37,1.37,0,0,0-.85,1.09,2.14,2.14,0,0,0,.58,1.74,160,160,0,0,1,15.77,21.78h-.4q-2.91-4.74-6.11-9.34c-1.77-2.55-3.65-5-5.58-7.55l-1.47-1.85-.75-.93c-.12-.15-.24-.31-.38-.46l-.4-.44a6.92,6.92,0,0,1-1.37-1.93,2.1,2.1,0,0,1-.15-1.16,1.59,1.59,0,0,1,.24-.55,2.43,2.43,0,0,1,.4-.45,2.45,2.45,0,0,0-.42.43,1.74,1.74,0,0,0-.26.55,2,2,0,0,0,.11,1.19,6.83,6.83,0,0,0,1.3,2l.39.44.36.47.71.94,1.41,1.88c1.84,2.53,3.65,5,5.37,7.62q3,4.53,5.84,9.16h-.39A158.7,158.7,0,0,0,164.79,84.47Zm43.23,0a158.35,158.35,0,0,0-15.34,21.11h-.39q2.81-4.62,5.84-9.15c1.71-2.57,3.52-5.09,5.36-7.62l1.42-1.88.71-.94c.12-.16.23-.32.36-.47l.38-.44a7.06,7.06,0,0,0,1.31-2,2.11,2.11,0,0,0,.1-1.19,1.55,1.55,0,0,0-.26-.55,2.14,2.14,0,0,0-.42-.43,2.49,2.49,0,0,1,.41.45,1.57,1.57,0,0,1,.23.55,1.93,1.93,0,0,1-.15,1.16A6.72,6.72,0,0,1,206.21,85l-.4.44c-.14.15-.25.31-.38.46l-.74.93-1.48,1.85c-1.93,2.5-3.8,5-5.58,7.55q-3.21,4.61-6.1,9.34h-.4A159.15,159.15,0,0,1,206.9,83.78a2.18,2.18,0,0,0,.58-1.74,1.4,1.4,0,0,0-.86-1.09,1.93,1.93,0,0,0-1.87.55,132.55,132.55,0,0,0-22.13,24h-.36a133,133,0,0,1,22.48-24.5c1.46-1.23,2.76-.88,3.42-.2A2.62,2.62,0,0,1,208,84.47Zm11.31,1.18a24.87,24.87,0,0,1,3.84,1.55c7.39,3.77,18.05,7.18,25.83,9.67,4.15,1.33,7.43,2.38,9.17,3.13a2,2,0,0,1,1.19,1.82,8.25,8.25,0,0,1-3,6.92,1.17,1.17,0,0,1-.83.24c-7.29-.59-27.93-6.89-34.67-12.78a.33.33,0,0,1-.09-.34,11.84,11.84,0,0,0,.57-3.38,3.39,3.39,0,0,0-2.07-3.18A64.12,64.12,0,0,0,210.87,88c-1.55-.18-3.18-.37-4.81-.59l.24-.29c.71.09,1.42.17,2.14.23,1.83.15,3.65.24,5.46.47.91.11,1.82.26,2.71.44s1.8.39,2.69.63l.68.18a2,2,0,0,0,.73.06,1.7,1.7,0,0,0,.37-.1,1.22,1.22,0,0,0,.31-.25.94.94,0,0,0,.17-.74,2,2,0,0,0-.77-1.22,4.77,4.77,0,0,0-1.27-.65,19.74,19.74,0,0,0-2.74-.73q-1.4-.28-2.82-.48c.95.16,1.89.34,2.82.56a20.62,20.62,0,0,1,2.71.8,3.94,3.94,0,0,1,1.21.66,1.77,1.77,0,0,1,.66,1.12.72.72,0,0,1-.17.57.79.79,0,0,1-.55.23,4.26,4.26,0,0,1-1.31-.27c-.45-.13-.9-.24-1.35-.36s-.91-.22-1.36-.31c-.91-.19-1.82-.35-2.74-.47-1.83-.25-3.67-.34-5.49-.49-.61,0-1.21-.12-1.82-.19l.15-.19.3,0c2.32.23,4.64.4,7,.68.58.08,1.17.13,1.75.24l.87.14.87.19.44.1.43.12.86.26a4.38,4.38,0,0,0,.88.23,2,2,0,0,0,.6,0,2,2,0,0,1-.6,0,6.54,6.54,0,0,1-.86-.26c-.28-.11-.57-.2-.86-.3l-.43-.14-.44-.12-.87-.22-.88-.17c-.58-.13-1.17-.2-1.76-.29-2.34-.34-4.67-.53-7-.77h0l.14-.17.57,0c1.7.17,3.4.33,5.11.55a43.54,43.54,0,0,1,5.19.93,35.7,35.7,0,0,0-5.17-1.19c-1.72-.28-3.43-.47-5.13-.63l-.3,0c.31-.37.61-.74.92-1.1a3.67,3.67,0,0,0,.54-.83A46.2,46.2,0,0,1,219.33,85.65Zm-48.76.41a.75.75,0,0,1-.86.61.73.73,0,0,1-.61-.85.74.74,0,0,1,.85-.62A.76.76,0,0,1,170.57,86.06Zm.6-.1a1.13,1.13,0,0,1-.54.78,1.19,1.19,0,0,0,.34-.61,1.15,1.15,0,0,0-.95-1.32,1.08,1.08,0,0,0-.77.16,1.13,1.13,0,0,1,1-.34A1.15,1.15,0,0,1,171.17,86Zm31.07.1a.75.75,0,0,1,.61-.86.75.75,0,0,1,.86.62.74.74,0,0,1-1.47.24ZM203.56,85a1.11,1.11,0,0,0-.78-.16,1.14,1.14,0,0,0-.94,1.32,1.06,1.06,0,0,0,.34.61,1.15,1.15,0,0,1-.55-.78,1.13,1.13,0,0,1,1.93-1Zm-3.93.1c-.75-.1-1.5-.2-2.26-.33.71.17,1.42.31,2.13.44l-.13.13a35.2,35.2,0,0,1-6.16-1.68,31.77,31.77,0,0,0,5.95,1.87l-.13.12c-.49-.11-1-.22-1.48-.35q-1.34-.34-2.64-.81a21.36,21.36,0,0,1-2.55-1.11A13.24,13.24,0,0,1,190,81.81a7.67,7.67,0,0,1-1.79-2.17A7.53,7.53,0,0,0,190,81.88a12.5,12.5,0,0,0,2.33,1.63,20.29,20.29,0,0,0,2.56,1.16c.88.34,1.77.62,2.66.87l1.24.31-.25.24c-4.83-1.17-8.92-3-10.53-6.23a1.15,1.15,0,0,1,.35-1.63,1.06,1.06,0,0,1,1.44.46h0c2.26,3.41,6.48,4.32,11.58,4.74C200.79,84,200.21,84.52,199.63,85.07ZM183,78.7h0a1.06,1.06,0,0,1,1.44-.46,1.15,1.15,0,0,1,.34,1.63c-1.6,3.23-5.69,5.06-10.52,6.23l-.25-.24,1.23-.31a27.54,27.54,0,0,0,2.66-.87,20.42,20.42,0,0,0,2.57-1.16,12.84,12.84,0,0,0,2.33-1.63,7.35,7.35,0,0,0,1.75-2.24,7.5,7.5,0,0,1-1.79,2.17,12.8,12.8,0,0,1-2.32,1.54,22.87,22.87,0,0,1-2.55,1.11c-.88.31-1.76.58-2.65.81-.49.13-1,.24-1.48.35l-.13-.12a31.54,31.54,0,0,0,6-1.87,35,35,0,0,1-6.16,1.68l-.13-.13c.71-.13,1.42-.27,2.14-.44-.76.13-1.51.23-2.26.33-.59-.55-1.16-1.1-1.76-1.63C176.52,83,180.75,82.11,183,78.7Z" transform="translate(-98.92 -77.13)"/></g></svg>