<svg xmlns="http://www.w3.org/2000/svg" viewBox="0 0 200.52 105.3"><defs><style>.cls-1{fill:#fff;}</style></defs><title>logo3</title><g id="layer_1" data-name="layer 1"><path class="cls-1" d="M166,148a179.76,179.76,0,0,0-14.45-20.39c-2,.27-3.93.5-5.8.71a73.89,73.89,0,0,0-9.5,1.46,3.42,3.42,0,0,0-2,3.19,12.87,12.87,0,0,0,.64,3.74.84.84,0,0,1-.25.86c-4.81,4.22-14.62,7.94-20,9.79-1.11.38-2.23.74-3.35,1.1-6.54,2-13,3.58-16.58,3.87a1.82,1.82,0,0,1-1.28-.38,9.89,9.89,0,0,1-3.65-8.29,2.73,2.73,0,0,1,1.64-2.5c2-.88,5.77-2.08,10.54-3.6,8.9-2.85,21.08-6.75,29.51-11,5.13-2.61,10.92-3.4,16.39-3.8a3.24,3.24,0,0,1,.67-3.38c1-1,2.76-1.31,4.55.2,1,.87,2,1.77,3.06,2.67,5.91-.46,10.82-1.42,13.35-5.26a1.66,1.66,0,0,1,2.27-.69,1.78,1.78,0,0,1,.59,2.48c-1.88,3.77-6.55,5.92-12.07,7.3a154.66,154.66,0,0,1,13.49,14.85,154.76,154.76,0,0,1,13.5-14.85c-5.52-1.38-10.19-3.53-12.07-7.3a1.78,1.78,0,0,1,.59-2.48A1.64,1.64,0,0,1,178,117c2.54,3.84,7.45,4.8,13.36,5.26,1-.9,2-1.8,3.06-2.67,1.79-1.51,3.58-1.19,4.55-.2a3.24,3.24,0,0,1,.67,3.38c5.47.4,11.26,1.19,16.39,3.8,8.43,4.3,20.61,8.2,29.51,11,4.77,1.52,8.53,2.72,10.54,3.6a2.73,2.73,0,0,1,1.64,2.5A9.89,9.89,0,0,1,254,152a1.82,1.82,0,0,1-1.28.38c-3.54-.29-10-1.82-16.58-3.87-1.12-.36-2.24-.72-3.35-1.1-5.41-1.85-15.22-5.57-20-9.79a.84.84,0,0,1-.25-.86,12.87,12.87,0,0,0,.64-3.74,3.42,3.42,0,0,0-2-3.19,74.17,74.17,0,0,0-9.5-1.46c-1.87-.21-3.83-.44-5.8-.71A181.82,181.82,0,0,0,181.41,148l.75,0a182.41,182.41,0,0,1,14-19.71c1.86.25,3.69.47,5.46.67a74.5,74.5,0,0,1,9.4,1.43,2.82,2.82,0,0,1,1.55,2.55,12.32,12.32,0,0,1-.61,3.57,1.5,1.5,0,0,0,.44,1.54c4.9,4.29,14.79,8,20.25,9.92,1.09.37,2.23.74,3.37,1.1,6.74,2.11,13.14,3.6,16.72,3.9h.2a2.47,2.47,0,0,0,1.53-.53,10.51,10.51,0,0,0,3.9-8.81,3.39,3.39,0,0,0-2-3.09c-2-.89-5.82-2.09-10.6-3.62-8.88-2.84-21-6.73-29.41-11-5-2.54-10.57-3.39-15.87-3.81a3.84,3.84,0,0,0-1-3.25,3.47,3.47,0,0,0-2.48-1,4.63,4.63,0,0,0-2.95,1.19c-1,.81-1.91,1.65-2.86,2.5-5.62-.46-10.25-1.4-12.58-4.93a2.4,2.4,0,0,0-2-1.21,2.27,2.27,0,0,0-1.11.29,2.44,2.44,0,0,0-.85,3.34c1.85,3.71,6.18,5.91,11.37,7.34a156.5,156.5,0,0,0-12.22,13.49,154.77,154.77,0,0,0-12.21-13.49c5.19-1.43,9.52-3.63,11.37-7.34a2.44,2.44,0,0,0-.85-3.34,2.27,2.27,0,0,0-1.11-.29,2.39,2.39,0,0,0-2,1.19c-2.34,3.54-7,4.49-12.59,5-.95-.85-1.9-1.69-2.87-2.5a4.58,4.58,0,0,0-2.94-1.19,3.47,3.47,0,0,0-2.48,1,3.84,3.84,0,0,0-1,3.25c-5.3.42-10.87,1.27-15.87,3.81-8.38,4.28-20.54,8.17-29.43,11-4.77,1.53-8.54,2.74-10.58,3.62a3.39,3.39,0,0,0-2,3.09,10.51,10.51,0,0,0,3.9,8.81,2.47,2.47,0,0,0,1.53.53h.2c3.57-.3,10-1.79,16.72-3.9,1.14-.36,2.28-.73,3.37-1.1,5.46-1.87,15.35-5.63,20.25-9.92a1.5,1.5,0,0,0,.44-1.54,12.32,12.32,0,0,1-.61-3.57,2.82,2.82,0,0,1,1.55-2.55,74.5,74.5,0,0,1,9.4-1.43c1.77-.2,3.6-.42,5.46-.67a181.56,181.56,0,0,1,14,19.72Z" transform="translate(-73.53 -115.42)"/><path class="cls-1" d="M194.64,176c1.39,3.36,2.63,6.72,3.67,10.07a9,9,0,0,1,.42,4.22,4.9,4.9,0,0,1-3.3,4c-3.38,1.16-8.2-.74-10-5.43s-3.6-9.21-5.47-13.52l-.72,0c1.91,4.39,3.77,9,5.58,13.77a9.29,9.29,0,0,0,8.51,6.18,7.18,7.18,0,0,0,2.29-.36,5.6,5.6,0,0,0,3.73-4.5,9.82,9.82,0,0,0-.45-4.51c-1-3.27-2.21-6.55-3.56-9.83Z" transform="translate(-73.53 -115.42)"/><path class="cls-1" d="M167.4,175.28c-1.87,4.32-3.69,8.81-5.47,13.52s-6.59,6.59-10,5.43a4.9,4.9,0,0,1-3.3-4,9,9,0,0,1,.42-4.22c1-3.34,2.27-6.7,3.66-10.05L152,176c-1.35,3.27-2.55,6.55-3.56,9.81a9.82,9.82,0,0,0-.45,4.51,5.6,5.6,0,0,0,3.73,4.5,7.18,7.18,0,0,0,2.29.36,9.29,9.29,0,0,0,8.51-6.18c1.81-4.81,3.67-9.38,5.58-13.77Z" transform="translate(-73.53 -115.42)"/><path class="cls-1" d="M134.44,128.57a1.26,1.26,0,0,1-.33-.1A1.26,1.26,0,0,0,134.44,128.57Z" transform="translate(-73.53 -115.42)"/><path class="cls-1" d="M132.62,133.93a11.67,11.67,0,0,0-.76-1.38c-.15-.22-.29-.44-.46-.65a2.6,2.6,0,0,0-2.11-1.07,2.51,2.51,0,0,0-.81.14l-.74.28-2.94,1.11-5.87,2.23c-2,.73-3.93,1.46-5.9,2.16q-5.9,2.16-11.89,4c-2,.63-4,1.21-6,1.76l-1.52.41c-.25.07-.5.12-.76.2a2.73,2.73,0,0,0-.72.37,2.3,2.3,0,0,0-.83,1.33,3.78,3.78,0,0,0,0,1.57,3.68,3.68,0,0,1,0-1.55,2.18,2.18,0,0,1,.84-1.25,2.23,2.23,0,0,1,.68-.32c.25-.07.51-.12.76-.18l1.54-.36c2-.51,4-1.05,6.07-1.64s4-1.22,6-1.88,4-1.34,5.94-2q5.91-2.16,11.74-4.49l2.91-1.17.73-.29a2.55,2.55,0,0,1,.73-.14,2.35,2.35,0,0,1,1.4.42,2.46,2.46,0,0,1,.55.52c.16.2.31.41.46.62a12.23,12.23,0,0,1,.81,1.34,17.44,17.44,0,0,1,1.15,2.91A15,15,0,0,0,132.62,133.93Z" transform="translate(-73.53 -115.42)"/><path class="cls-1" d="M166,120.88a10.51,10.51,0,0,0,3-2c.21-.21.41-.44.6-.67s.37-.49.55-.73a1.16,1.16,0,0,1,.72-.5.85.85,0,0,1,.44.09.48.48,0,0,1,.24.37.45.45,0,0,0-.23-.38.71.71,0,0,0-.45-.12,1.13,1.13,0,0,0-.78.47l-.28.36-.29.35c-.19.22-.4.44-.61.64a11.33,11.33,0,0,1-2.93,2,29.3,29.3,0,0,1-6.94,2c1.23-.18,2.43-.37,3.61-.64A16.72,16.72,0,0,0,166,120.88Z" transform="translate(-73.53 -115.42)"/><path class="cls-1" d="M164.46,121.73a10.46,10.46,0,0,0,4.58-2.66A24.54,24.54,0,0,1,164.46,121.73Z" transform="translate(-73.53 -115.42)"/><path class="cls-1" d="M93.43,143.37a4.07,4.07,0,0,0-1.25.58,1.29,1.29,0,0,0-.44.54,1.32,1.32,0,0,0-.1.68,1.4,1.4,0,0,1,.12-.67,1.28,1.28,0,0,1,.44-.51,4.26,4.26,0,0,1,1.24-.53c.88-.24,1.77-.4,2.65-.58a52.68,52.68,0,0,0,5.2-1.3c3.41-1,6.75-2.06,10.07-3.2s6.6-2.37,9.89-3.72l2.46-1c.82-.36,1.65-.71,2.45-1.11a17.58,17.58,0,0,1,2.5-1,2.5,2.5,0,0,1,1.33,0,2.17,2.17,0,0,1,1.09.8,2.2,2.2,0,0,0-1.06-.84,2.51,2.51,0,0,0-1.36,0,15.67,15.67,0,0,0-2.53,1c-.81.38-1.64.7-2.46,1l-2.47,1c-3.29,1.29-6.59,2.48-9.9,3.62s-6.66,2.24-10,3.31c-1.69.55-3.41,1-5.18,1.42C95.2,142.92,94.3,143.1,93.43,143.37Z" transform="translate(-73.53 -115.42)"/><path class="cls-1" d="M91.18,142.07a5.75,5.75,0,0,1,.65-.34c.44-.2.9-.37,1.35-.53.92-.32,1.84-.59,2.76-.85l5.52-1.5c.91-.25,1.82-.53,2.71-.82l2.68-.88c1.78-.59,3.55-1.18,5.32-1.8,3.53-1.23,7-2.53,10.53-4s7-3.11,10.42-4.94c-3.49,1.7-7,3.24-10.47,4.64q-2.62,1.07-5.26,2T112.11,135c-1.77.62-3.54,1.22-5.32,1.83l-2.67.91c-.9.31-1.79.6-2.7.87-1.82.54-3.66,1.05-5.5,1.62-.92.29-1.85.58-2.76.93-.45.17-.91.36-1.35.57a5.89,5.89,0,0,0-.64.37,1.44,1.44,0,0,0-.52.52A1.49,1.49,0,0,1,91.18,142.07Z" transform="translate(-73.53 -115.42)"/><path class="cls-1" d="M134.35,130a2.9,2.9,0,0,0-.71,1.11,5.63,5.63,0,0,0-.2,2.58,16.82,16.82,0,0,1,.56-2.44,3.91,3.91,0,0,1,.57-1,2.53,2.53,0,0,1,1-.8A2.21,2.21,0,0,0,134.35,130Z" transform="translate(-73.53 -115.42)"/><path class="cls-1" d="M133.7,130.63c.16-.22.3-.46.51-.74a1.24,1.24,0,0,0-.83.51,1.26,1.26,0,0,0-.21.95C133.37,131.06,133.54,130.85,133.7,130.63Z" transform="translate(-73.53 -115.42)"/><path class="cls-1" d="M111.14,139c5.22-1.84,10.37-3.89,15.67-6.28-5.35,2.12-10.52,4-15.75,5.89s-10.5,3.58-16.07,5.29C100.61,142.41,105.91,140.79,111.14,139Z" transform="translate(-73.53 -115.42)"/><path class="cls-1" d="M119.65,136c-5.67,2.18-10.92,4-16.78,5.94A76.33,76.33,0,0,0,119.65,136Z" transform="translate(-73.53 -115.42)"/><path class="cls-1" d="M114.44,146.17a125.85,125.85,0,0,1-20.2,5.23,103.38,103.38,0,0,0,39.15-13.65A127.37,127.37,0,0,1,114.44,146.17Z" transform="translate(-73.53 -115.42)"/><path class="cls-1" d="M192.83,189a1,1,0,0,1-.63-.6,1,1,0,0,1,0-.86,1.19,1.19,0,0,1,.78-.62,1.16,1.16,0,0,0-1.26,1,1.26,1.26,0,0,0,.09.61,1.16,1.16,0,0,0,.36.49,1.1,1.1,0,0,0,.56.25,1.16,1.16,0,0,0,1.06-.4A1.18,1.18,0,0,1,192.83,189Z" transform="translate(-73.53 -115.42)"/><path class="cls-1" d="M154.38,125.77a.53.53,0,0,1-.12-.44.68.68,0,0,1,.34-.47.66.66,0,0,0-.61.36.75.75,0,0,0,.81,1.07.64.64,0,0,0,.51-.49.69.69,0,0,1-.53.2A.57.57,0,0,1,154.38,125.77Z" transform="translate(-73.53 -115.42)"/><path class="cls-1" d="M213,128.57a1.26,1.26,0,0,0,.33-.1A1.26,1.26,0,0,1,213,128.57Z" transform="translate(-73.53 -115.42)"/><path class="cls-1" d="M256.1,144.84a2.3,2.3,0,0,0-.83-1.33,2.73,2.73,0,0,0-.72-.37c-.26-.08-.51-.13-.76-.2l-1.52-.41c-2-.55-4-1.13-6-1.76q-6-1.86-11.89-4c-2-.7-3.94-1.43-5.9-2.16l-5.87-2.23-2.94-1.11-.74-.28a2.51,2.51,0,0,0-.81-.14A2.6,2.6,0,0,0,216,131.9c-.17.21-.31.43-.46.65a11.67,11.67,0,0,0-.76,1.38,15,15,0,0,0-1.05,3,17.44,17.44,0,0,1,1.15-2.91,12.23,12.23,0,0,1,.81-1.34c.14-.21.3-.42.46-.62a2.46,2.46,0,0,1,.55-.52,2.35,2.35,0,0,1,1.4-.42,2.55,2.55,0,0,1,.73.14l.73.29,2.91,1.17q5.83,2.34,11.74,4.49c2,.71,4,1.4,5.94,2s4,1.3,6,1.88,4,1.13,6.07,1.64l1.54.36c.25.06.51.11.76.18a2.23,2.23,0,0,1,.68.32,2.18,2.18,0,0,1,.84,1.25,3.68,3.68,0,0,1,0,1.55A3.78,3.78,0,0,0,256.1,144.84Z" transform="translate(-73.53 -115.42)"/><path class="cls-1" d="M176.17,117a.85.85,0,0,1,.44-.09,1.16,1.16,0,0,1,.72.5c.18.24.35.49.55.73s.39.46.6.67a10.51,10.51,0,0,0,3,2,16.72,16.72,0,0,0,3.39,1.15c1.18.27,2.38.46,3.61.64a29.3,29.3,0,0,1-6.94-2,11.33,11.33,0,0,1-2.93-2,7.34,7.34,0,0,1-.61-.64l-.29-.35-.28-.36a1.13,1.13,0,0,0-.78-.47.71.71,0,0,0-.45.12.45.45,0,0,0-.23.38A.48.48,0,0,1,176.17,117Z" transform="translate(-73.53 -115.42)"/><path class="cls-1" d="M178.35,119.07a10.46,10.46,0,0,0,4.58,2.66A24.54,24.54,0,0,1,178.35,119.07Z" transform="translate(-73.53 -115.42)"/><path class="cls-1" d="M217.37,131.42a2.2,2.2,0,0,0-1.06.84,2.19,2.19,0,0,1,1.08-.8,2.54,2.54,0,0,1,1.34,0,17.58,17.58,0,0,1,2.5,1c.8.4,1.63.75,2.45,1.11l2.46,1c3.29,1.35,6.58,2.58,9.89,3.72s6.66,2.2,10.07,3.2a52.68,52.68,0,0,0,5.2,1.3c.88.18,1.77.34,2.65.58a4.26,4.26,0,0,1,1.24.53,1.28,1.28,0,0,1,.44.51,1.4,1.4,0,0,1,.12.67,1.32,1.32,0,0,0-.1-.68,1.29,1.29,0,0,0-.44-.54,4.07,4.07,0,0,0-1.25-.58c-.88-.27-1.77-.45-2.64-.66-1.77-.4-3.49-.87-5.18-1.42-3.39-1.07-6.73-2.17-10-3.31s-6.61-2.33-9.9-3.62l-2.47-1c-.82-.34-1.65-.66-2.46-1a15.67,15.67,0,0,0-2.53-1A2.51,2.51,0,0,0,217.37,131.42Z" transform="translate(-73.53 -115.42)"/><path class="cls-1" d="M235.22,135.35c1.77.62,3.54,1.21,5.32,1.8l2.68.88c.89.29,1.8.57,2.71.82l5.52,1.5c.92.26,1.84.53,2.76.85.45.16.91.33,1.35.53a5.75,5.75,0,0,1,.65.34,1.49,1.49,0,0,1,.53.5,1.44,1.44,0,0,0-.52-.52,5.89,5.89,0,0,0-.64-.37c-.44-.21-.9-.4-1.35-.57-.91-.35-1.84-.64-2.76-.93-1.84-.57-3.68-1.08-5.5-1.62-.91-.27-1.8-.56-2.7-.87l-2.67-.91c-1.78-.61-3.56-1.21-5.32-1.83s-3.53-1.24-5.28-1.89-3.51-1.31-5.26-2c-3.5-1.4-7-2.94-10.47-4.64q5.19,2.74,10.42,4.94C228.18,132.82,231.69,134.12,235.22,135.35Z" transform="translate(-73.53 -115.42)"/><path class="cls-1" d="M213.75,131.11A2.9,2.9,0,0,0,213,130a2.21,2.21,0,0,0-1.18-.59,2.53,2.53,0,0,1,1,.8,3.91,3.91,0,0,1,.57,1,16.82,16.82,0,0,1,.56,2.44A5.77,5.77,0,0,0,213.75,131.11Z" transform="translate(-73.53 -115.42)"/><path class="cls-1" d="M214.22,131.35a1.26,1.26,0,0,0-.21-.95,1.24,1.24,0,0,0-.83-.51c.21.28.35.52.51.74S214,131.06,214.22,131.35Z" transform="translate(-73.53 -115.42)"/><path class="cls-1" d="M236.33,138.57c-5.23-1.84-10.4-3.77-15.75-5.89,5.3,2.39,10.45,4.44,15.67,6.28s10.53,3.45,16.15,4.9C246.83,142.15,241.56,140.4,236.33,138.57Z" transform="translate(-73.53 -115.42)"/><path class="cls-1" d="M244.52,141.93c-5.86-1.89-11.11-3.76-16.78-5.94A76.33,76.33,0,0,0,244.52,141.93Z" transform="translate(-73.53 -115.42)"/><path class="cls-1" d="M233,146.17A127.37,127.37,0,0,1,214,137.75a103.38,103.38,0,0,0,39.15,13.65A125.85,125.85,0,0,1,233,146.17Z" transform="translate(-73.53 -115.42)"/><path class="cls-1" d="M154.63,189.28a1.1,1.1,0,0,0,.56-.25,1.16,1.16,0,0,0,.36-.49,1.18,1.18,0,0,0-.14-1.18,1.15,1.15,0,0,0-1-.45,1.19,1.19,0,0,1,.78.62,1,1,0,0,1,0,.86,1,1,0,0,1-.63.6,1.18,1.18,0,0,1-1-.11A1.16,1.16,0,0,0,154.63,189.28Z" transform="translate(-73.53 -115.42)"/><path class="cls-1" d="M193.32,126a.72.72,0,0,0,.08-.79.66.66,0,0,0-.61-.36.68.68,0,0,1,.34.47.56.56,0,0,1-.12.44.57.57,0,0,1-.4.23.72.72,0,0,1-.54-.2.67.67,0,0,0,.52.49A.71.71,0,0,0,193.32,126Z" transform="translate(-73.53 -115.42)"/><path class="cls-1" d="M108.94,201.93a5.62,5.62,0,0,0-2.33-1.06,5.12,5.12,0,0,0-4.32.83,6.54,6.54,0,0,0-2.55,4l0,.18a6.28,6.28,0,0,0,.53,4.7,5.29,5.29,0,0,0,3.65,2.65,5.94,5.94,0,0,0,2.65,0,4.86,4.86,0,0,0,1.9-.85c.15-.71.29-1.43.44-2.14l-1.2-.25c-.22.54-.45,1.09-.68,1.63a3.07,3.07,0,0,1-1.21.4,4.5,4.5,0,0,1-1.62-.09,3.44,3.44,0,0,1-2.56-2,5.61,5.61,0,0,1-.22-3.68l0-.18a5.77,5.77,0,0,1,1.83-3.2,3.6,3.6,0,0,1,3.24-.69,3.64,3.64,0,0,1,1.35.56,3.28,3.28,0,0,1,.86.84c0,.59,0,1.18,0,1.77l1.18.25.45-2.14A5,5,0,0,0,108.94,201.93Z" transform="translate(-73.53 -115.42)"/><path class="cls-1" d="M120.54,203.79l-.18,1.06,1.33.47c-.38,2.31-.77,4.61-1.16,6.92a2.59,2.59,0,0,1-1.21,1.94,3.51,3.51,0,0,1-2.4.31,3.19,3.19,0,0,1-2-1.1,2.64,2.64,0,0,1-.43-2.23c.43-2.3.87-4.6,1.3-6.9l1.42,0c.06-.35.13-.7.19-1.05l-3-.57-1.37-.27-.21,1.05,1.33.5c-.45,2.3-.9,4.59-1.34,6.89a3.68,3.68,0,0,0,.71,3.26,5.23,5.23,0,0,0,3.22,1.68,5.55,5.55,0,0,0,3.7-.44,3.65,3.65,0,0,0,1.85-2.81c.37-2.31.75-4.62,1.12-6.93h1.42c.06-.35.11-.7.17-1.06l-1.38-.22Z" transform="translate(-73.53 -115.42)"/><path class="cls-1" d="M126.22,207.47l1.44.22c.1-.46.21-.92.32-1.38.92.14,1.83.27,2.75.39l-1.32,9.59-1.46,0-.15,1.05c1.53.22,3.06.43,4.6.63,0-.35.09-.71.13-1.06l-1.4-.42c.43-3.19.85-6.39,1.28-9.59l2.74.35c0,.47,0,.94,0,1.42l1.43.17c.11-.9.22-1.8.32-2.7-3.41-.4-6.83-.87-10.23-1.39C126.49,205.68,126.35,206.58,126.22,207.47Z" transform="translate(-73.53 -115.42)"/><path class="cls-1" d="M143.4,206.7a5.22,5.22,0,0,0-3.3.62,3,3,0,0,0-1.5,2.25,2.79,2.79,0,0,0,.87,2.38,7.6,7.6,0,0,0,3,1.68,5.73,5.73,0,0,1,2.21,1.17,1.82,1.82,0,0,1,.53,1.47,1.67,1.67,0,0,1-.89,1.37,3.56,3.56,0,0,1-2.12.33,4.63,4.63,0,0,1-1.63-.42,4.09,4.09,0,0,1-1.13-.77l-.15-1.79-1.29-.14c-.08.76-.16,1.52-.25,2.28a5.28,5.28,0,0,0,1.74,1.41,7,7,0,0,0,2.59.72,5.44,5.44,0,0,0,3.39-.59,2.78,2.78,0,0,0,1.46-2.27,3,3,0,0,0-.84-2.4,7.17,7.17,0,0,0-2.9-1.69,6.92,6.92,0,0,1-2.29-1.17,1.59,1.59,0,0,1-.6-1.41,1.8,1.8,0,0,1,.87-1.38,3.33,3.33,0,0,1,2.11-.35,4.74,4.74,0,0,1,1.47.35,3,3,0,0,1,1,.62c.06.59.11,1.18.17,1.78l1.28.11c.06-.76.12-1.52.19-2.28a5.31,5.31,0,0,0-1.63-1.22A6.14,6.14,0,0,0,143.4,206.7Z" transform="translate(-73.53 -115.42)"/><path class="cls-1" d="M150.51,208.18a4.45,4.45,0,0,1-.31,1.34,5.16,5.16,0,0,1-.7,1.18l.92.69a4.09,4.09,0,0,0,1.23-1.4,4.14,4.14,0,0,0,.54-1.72c0-.51.07-1,.1-1.54l-1.67-.12C150.58,207.13,150.54,207.66,150.51,208.18Z" transform="translate(-73.53 -115.42)"/><path class="cls-1" d="M162.08,208.11l0,1.07,1.38.29c-.08,2.71-.17,5.43-.25,8.14l-.06,0q-2.93-4.83-5.66-9.72l-1.68-.09-1.38-.08c0,.36-.05.71-.07,1.07l1.38.32-.54,9.66-1.45.15c0,.35-.05.71-.07,1.06,1.54.1,3.09.18,4.63.25,0-.35,0-.71.05-1.06l-1.43-.31.42-8.15.05,0q2.76,4.89,5.72,9.73l1.74.05c.1-3.66.19-7.32.29-11l1.4-.2c0-.36,0-.71,0-1.07l-1.39,0Z" transform="translate(-73.53 -115.42)"/><path class="cls-1" d="M179.07,213.68a6.87,6.87,0,0,1-2.41-.9,1.61,1.61,0,0,1-.75-1.33,1.78,1.78,0,0,1,.71-1.47,3.27,3.27,0,0,1,2-.59,4.94,4.94,0,0,1,1.5.18,3.36,3.36,0,0,1,1,.5l.36,1.75,1.28,0c0-.76,0-1.52-.07-2.28a5.44,5.44,0,0,0-1.75-1,6.3,6.3,0,0,0-2.38-.39,5.18,5.18,0,0,0-3.2,1,2.88,2.88,0,0,0-1.23,2.41,2.78,2.78,0,0,0,1.13,2.26,7.65,7.65,0,0,0,3.16,1.33,5.74,5.74,0,0,1,2.33.91,1.83,1.83,0,0,1,.69,1.39,1.65,1.65,0,0,1-.73,1.47,3.52,3.52,0,0,1-2.06.57,4.65,4.65,0,0,1-1.67-.23,4.19,4.19,0,0,1-1.21-.63c-.12-.59-.23-1.18-.35-1.77h-1.29c0,.76,0,1.53,0,2.29a5.16,5.16,0,0,0,1.88,1.2,6.89,6.89,0,0,0,2.65.43,5.53,5.53,0,0,0,3.3-1,2.78,2.78,0,0,0,1.2-2.42,3,3,0,0,0-1.12-2.29A7,7,0,0,0,179.07,213.68Z" transform="translate(-73.53 -115.42)"/><path class="cls-1" d="M196.82,218.41l-.72-9.65,1.37-.34c0-.36-.05-.72-.08-1.07l-1.39.11-1.67.12-1.39.09c0,.35.05.71.07,1.07l1.41.14c.1,1.41.19,2.82.29,4.23-2,.14-4.07.27-6.11.37l-.21-4.24,1.38-.31-.06-1.07c-1.48.08-3,.15-4.45.21,0,.35,0,.71,0,1.07l1.4.18c.14,3.22.29,6.44.43,9.66l-1.43.3c0,.35,0,.71,0,1.06,1.55-.06,3.09-.13,4.63-.21l-.06-1.07-1.45-.16-.2-4.12q3.08-.15,6.14-.36c.1,1.37.19,2.74.29,4.11l-1.42.34.06,1.06c1.55-.1,3.09-.21,4.63-.34,0-.35-.06-.7-.08-1.05Z" transform="translate(-73.53 -115.42)"/><path class="cls-1" d="M211.62,217.07q-2.85-5.23-5.57-10.53l-1.44.15q-1.59,5.75-3.34,11.47l-.94.21.09,1.06,3.68-.34c0-.35-.06-.71-.1-1.06l-1-.07c.22-.77.44-1.55.65-2.33,1.7-.17,3.39-.34,5.09-.54.36.72.73,1.44,1.1,2.16l-1,.26.12,1.06c1.23-.14,2.45-.28,3.68-.44,0-.35-.09-.7-.13-1Zm-7.55-2.88q.74-2.72,1.45-5.45h0q1.23,2.52,2.51,5C206.74,213.92,205.41,214.06,204.07,214.19Z" transform="translate(-73.53 -115.42)"/><path class="cls-1" d="M218.44,205c.05.36.1.71.16,1.06h1.13q-.78,4.17-1.62,8.32l-.15,1h-.06l-.42-.92q-2-3.75-3.88-7.52l1.1-.33-.14-1.06-3.9.5c.05.35.09.71.13,1.06h1q2.76,5.23,5.68,10.42l1.48-.21q1.35-5.79,2.56-11.59l1-.29-.18-1.06Q220.38,204.67,218.44,205Z" transform="translate(-73.53 -115.42)"/><path class="cls-1" d="M234,211.74c.06.55.11,1.1.17,1.65-1.69.33-3.39.64-5.09,1-.26-1.44-.52-2.89-.77-4.33,1.59-.28,3.19-.58,4.78-.89-.08-.43-.16-.86-.25-1.29-1.58.31-3.17.61-4.76.89-.24-1.3-.47-2.61-.7-3.91,1.61-.29,3.23-.59,4.84-.9l.45,1.59,1.43-.29-.58-2.89q-4.69.93-9.4,1.73c.05.35.11.7.17,1,.48,0,.95,0,1.42,0l1.65,9.54-1.39.47.18,1q5-.82,9.88-1.82c-.19-1-.39-1.92-.58-2.88Z" transform="translate(-73.53 -115.42)"/><path class="cls-1" d="M245.61,206.7a7,7,0,0,0-3.29-.69,7.13,7.13,0,0,1-2.56-.4,1.59,1.59,0,0,1-1-1.15,1.75,1.75,0,0,1,.4-1.58,3.37,3.37,0,0,1,1.91-1,4.72,4.72,0,0,1,1.5-.13,3.16,3.16,0,0,1,1.13.29c.24.54.47,1.09.71,1.63l1.26-.3c-.18-.74-.35-1.48-.53-2.22a5.6,5.6,0,0,0-1.94-.65,6.44,6.44,0,0,0-2.42.1,5.22,5.22,0,0,0-3,1.63,3,3,0,0,0-.72,2.61,2.79,2.79,0,0,0,1.57,2,7.75,7.75,0,0,0,3.38.66,5.76,5.76,0,0,1,2.48.41,1.78,1.78,0,0,1,1,1.23,1.65,1.65,0,0,1-.41,1.58,3.57,3.57,0,0,1-1.92,1,5.12,5.12,0,0,1-1.7.12,4.27,4.27,0,0,1-1.31-.38c-.24-.55-.47-1.1-.7-1.65l-1.27.27c.15.74.31,1.49.47,2.23a5.22,5.22,0,0,0,2.09.8,6.94,6.94,0,0,0,2.7-.12,5.57,5.57,0,0,0,3.06-1.63,2.78,2.78,0,0,0,.68-2.62A2.94,2.94,0,0,0,245.61,206.7Z" transform="translate(-73.53 -115.42)"/><path class="cls-1" d="M138,165.23l-1.22.15.33,2.61a.88.88,0,0,1-.07.46.52.52,0,0,1-.41.24.47.47,0,0,1-.44-.14.69.69,0,0,1-.2-.42c0-.18,0-.37-.07-.55a6.14,6.14,0,0,0-.31-1.34,2.65,2.65,0,0,0-.62-1,2.5,2.5,0,0,0-1-.56,4.44,4.44,0,0,0-1.56-.13l0-.12A3.71,3.71,0,0,0,135,163a4.14,4.14,0,0,0,.52-2.86,5,5,0,0,0-.49-1.67,3.11,3.11,0,0,0-1.1-1.21,4.44,4.44,0,0,0-1.87-.61,10,10,0,0,0-2.74.08q-5.77.83-11.52,1.87l.69,3.77a2.88,2.88,0,0,1,1.39,0,1,1,0,0,1,.57.84l.9,5.14a1,1,0,0,1-.23,1,2.75,2.75,0,0,1-1.28.48l.69,3.77c3.06-.56,6.12-1.07,9.2-1.53l-.57-3.79a1.92,1.92,0,0,1-1.15-.07,1,1,0,0,1-.43-.73c-.07-.49-.15-1-.22-1.46l.25,0a3.75,3.75,0,0,1,.86,0,1,1,0,0,1,.62.29,1.75,1.75,0,0,1,.43.74,6.85,6.85,0,0,1,.29,1.31l.12.78a5.1,5.1,0,0,0,.36,1.26,2.53,2.53,0,0,0,.77,1,3,3,0,0,0,1.31.55,6.53,6.53,0,0,0,2,0,7.34,7.34,0,0,0,2-.51,3.71,3.71,0,0,0,1.26-.88,2.71,2.71,0,0,0,.6-1.18,3.94,3.94,0,0,0,.06-1.38C138.25,167,138.15,166.1,138,165.23Zm-8.83-1.8a1.53,1.53,0,0,1-1.17.6l-.93.14c-.17-1.06-.33-2.11-.5-3.17l1-.15a1.64,1.64,0,0,1,1.3.2,1.81,1.81,0,0,1,.52,1.18A1.77,1.77,0,0,1,129.21,163.43Z" transform="translate(-73.53 -115.42)"/><path class="cls-1" d="M247.26,166.29a6.73,6.73,0,0,0-1.32-2.9,8.36,8.36,0,0,0-2.62-2.15,13.69,13.69,0,0,0-3.7-1.33,13.32,13.32,0,0,0-3.91-.28,8.34,8.34,0,0,0-3.27.91,6.73,6.73,0,0,0-2.39,2.11,8.4,8.4,0,0,0-1.3,3.32,8.59,8.59,0,0,0,.05,3.55,7,7,0,0,0,1.41,2.82,8.42,8.42,0,0,0,2.56,2,14.56,14.56,0,0,0,7.25,1.54,8.3,8.3,0,0,0,3.17-.84,7,7,0,0,0,2.44-2,8.45,8.45,0,0,0,1.48-3.23A8.05,8.05,0,0,0,247.26,166.29Zm-6.86-.13a20.2,20.2,0,0,1-.35,2.06,20,20,0,0,1-.54,2,4.61,4.61,0,0,1-.62,1.26,1.57,1.57,0,0,1-.8.6,2.17,2.17,0,0,1-1.05,0,2.13,2.13,0,0,1-1-.44,1.68,1.68,0,0,1-.48-.87,4.51,4.51,0,0,1-.05-1.41,17.91,17.91,0,0,1,.32-2.06,17.53,17.53,0,0,1,.51-2A4.29,4.29,0,0,1,237,164a1.57,1.57,0,0,1,.8-.6,2.13,2.13,0,0,1,1.1,0,2.16,2.16,0,0,1,1,.44,1.63,1.63,0,0,1,.49.88A4.21,4.21,0,0,1,240.4,166.16Z" transform="translate(-73.53 -115.42)"/><path class="cls-1" d="M265.41,168.38A4.41,4.41,0,0,0,264,166.9a8.67,8.67,0,0,0-2.53-1.12q-5.76-1.65-11.56-3.09c-.3,1.24-.61,2.48-.91,3.72a3,3,0,0,1,1.27.57,1,1,0,0,1,.18,1q-.65,2.53-1.28,5.06a1,1,0,0,1-.62.79,2.78,2.78,0,0,1-1.36-.09c-.31,1.24-.62,2.48-.92,3.72q5,1.23,10,2.65l1-3.69-1-.29a1.43,1.43,0,0,1-.91-.57,1.19,1.19,0,0,1,0-.9c.06-.2.11-.4.17-.6l3.36.95a10.46,10.46,0,0,0,2.65.46,4.25,4.25,0,0,0,1.92-.38,3.39,3.39,0,0,0,1.32-1.12,6.47,6.47,0,0,0,.84-1.81,6.7,6.7,0,0,0,.33-2A3.58,3.58,0,0,0,265.41,168.38Zm-6.2,2.48a2,2,0,0,1-.66,1.06,1.52,1.52,0,0,1-1.34.1l-1.13-.32.89-3.2,1.14.31a1.49,1.49,0,0,1,1.09.81A2,2,0,0,1,259.21,170.86Z" transform="translate(-73.53 -115.42)"/><path class="cls-1" d="M219.44,156.74c-.18,1.26-.37,2.53-.55,3.79a2,2,0,0,1,1.1.41.92.92,0,0,1,.2.84c-.08.55-.16,1.09-.25,1.64-1.22-.18-2.44-.36-3.67-.52.08-.55.15-1.1.23-1.65a.94.94,0,0,1,.42-.75,2,2,0,0,1,1.17-.08l.54-3.79q-4.84-.69-9.71-1.23l-.42,3.81a2.88,2.88,0,0,1,1.34.39,1,1,0,0,1,.3,1c-.2,1.73-.4,3.46-.61,5.19a1,1,0,0,1-.5.86,2.76,2.76,0,0,1-1.36.09l-.42,3.81q4.63.51,9.24,1.16l.54-3.79a1.84,1.84,0,0,1-1.07-.39.94.94,0,0,1-.21-.83c.09-.63.18-1.27.26-1.9l3.66.52c-.1.63-.19,1.27-.29,1.9a.91.91,0,0,1-.43.73,1.87,1.87,0,0,1-1.14.08c-.18,1.27-.37,2.53-.55,3.79q4.61.68,9.2,1.48l.66-3.77a2.83,2.83,0,0,1-1.27-.47,1,1,0,0,1-.24-1q.45-2.56.88-5.15a1,1,0,0,1,.56-.84,2.75,2.75,0,0,1,1.39,0l.66-3.78Q224.28,157.45,219.44,156.74Z" transform="translate(-73.53 -115.42)"/><path class="cls-1" d="M199.2,157.8a2.15,2.15,0,0,1,1.12-.15,3.3,3.3,0,0,1,1.08.27,3.18,3.18,0,0,1,.92.6,3,3,0,0,1,.66.84,2.44,2.44,0,0,1,.29,1c1.19.11,2.37.22,3.55.35q.3-2.74.58-5.49c-1.2-.13-2.41-.25-3.61-.36l-.09,1a8.66,8.66,0,0,0-1.86-1,10.6,10.6,0,0,0-3-.63,9.21,9.21,0,0,0-2.42.13,6.56,6.56,0,0,0-2.06.76,4.63,4.63,0,0,0-1.47,1.38,3.82,3.82,0,0,0-.62,2,4.27,4.27,0,0,0,.49,2.49,5.34,5.34,0,0,0,1.49,1.61,7.93,7.93,0,0,0,2,1l2,.7a8.14,8.14,0,0,1,1.52.68,1,1,0,0,1,.56.93.79.79,0,0,1-.44.61,1.89,1.89,0,0,1-1.17.19,3.44,3.44,0,0,1-2-.86,3.31,3.31,0,0,1-1.09-2c-1.17-.08-2.34-.16-3.51-.22l-.33,5.61,3.44.23c0-.31.05-.61.07-.91a10.1,10.1,0,0,0,2.2,1.07,9.67,9.67,0,0,0,2.31.47,11.66,11.66,0,0,0,2.44,0,6.82,6.82,0,0,0,2.15-.61,4.46,4.46,0,0,0,1.58-1.27,4,4,0,0,0,.76-2,4.79,4.79,0,0,0-.17-2,4.25,4.25,0,0,0-.83-1.49,5.46,5.46,0,0,0-1.3-1.08,13.69,13.69,0,0,0-1.53-.77c-.53-.22-1.05-.41-1.56-.58s-1-.32-1.37-.48a3.57,3.57,0,0,1-1-.54.81.81,0,0,1-.32-.71A.75.75,0,0,1,199.2,157.8Z" transform="translate(-73.53 -115.42)"/><path class="cls-1" d="M118.79,170a2.1,2.1,0,0,1-.64,0,.85.85,0,0,1-.44-.14,1.3,1.3,0,0,1-.31-.31c-.09-.12-.2-.27-.32-.45q-1.56-2.35-3.17-4.7a1.08,1.08,0,0,1-.26-.84c.07-.21.37-.37.89-.48l.22,0c-.25-1.25-.49-2.51-.73-3.76q-5.58,1.09-11.11,2.37l.87,3.74.22-.06c.52-.12.85-.09,1,.07a1,1,0,0,1,.12.88c-.33,1.86-.66,3.72-1,5.59a3.35,3.35,0,0,1-.29.95,1.41,1.41,0,0,1-.94.53l-.42.1.9,3.72c2.13-.51,4.26-1,6.39-1.48-.27-1.24-.55-2.49-.82-3.74l-.6.13a.88.88,0,0,1-.85-.11.76.76,0,0,1-.18-.71c0-.16,0-.31,0-.47l3.3-.72.24.4a.78.78,0,0,1,.12.73,1,1,0,0,1-.74.46l-.57.12.81,3.75c3.11-.68,6.24-1.31,9.37-1.88-.24-1.26-.47-2.52-.7-3.77Zm-11.22-.86.42-3.34.09,0,1.73,2.87Z" transform="translate(-73.53 -115.42)"/><path class="cls-1" d="M100.13,171.1a4.44,4.44,0,0,0-3.1-.23l0-.11c2.27-.8,3.15-2.25,2.62-4.39a6.07,6.07,0,0,0-.5-1.33,2.6,2.6,0,0,0-.94-1,3.52,3.52,0,0,0-1.61-.47,7.68,7.68,0,0,0-2.47.31q-6.27,1.65-12.47,3.56c.37,1.22.75,2.44,1.12,3.66a2.82,2.82,0,0,1,1.4-.17,1,1,0,0,1,.66.76c.5,1.67,1,3.34,1.51,5a1,1,0,0,1-.13,1,2.78,2.78,0,0,1-1.22.62c.38,1.22.75,2.44,1.13,3.66q5.57-1.71,11.17-3.19a10.73,10.73,0,0,0,2.83-1.11,4.46,4.46,0,0,0,1.45-1.3,2.54,2.54,0,0,0,.45-1.42,6.48,6.48,0,0,0-.17-1.46A3.41,3.41,0,0,0,100.13,171.1Zm-9.44-2.34,1.59-.44a1.1,1.1,0,0,1,1,.15,1.51,1.51,0,0,1,.54.84,1.63,1.63,0,0,1,0,1A1.12,1.12,0,0,1,93,171l-1.58.44C91.18,170.54,90.93,169.65,90.69,168.76Zm4.67,6.2a1.76,1.76,0,0,1-1.11.65l-1.54.42c-.26-.94-.52-1.89-.79-2.84l1.55-.43a1.7,1.7,0,0,1,1.3,0,1.64,1.64,0,0,1,.63,1A1.56,1.56,0,0,1,95.36,175Z" transform="translate(-73.53 -115.42)"/><path class="cls-1" d="M155.21,168.05a2.64,2.64,0,0,0,.69-1.32,6.06,6.06,0,0,0,.09-1.47,3.39,3.39,0,0,0-1.23-2.65,4.4,4.4,0,0,0-3-.77v-.12c2.36-.37,3.48-1.64,3.34-3.84a5.87,5.87,0,0,0-.25-1.4,2.52,2.52,0,0,0-.74-1.17,3.48,3.48,0,0,0-1.49-.75,7.51,7.51,0,0,0-2.47-.14q-6.41.5-12.8,1.25l.45,3.8a3,3,0,0,1,1.39.08,1,1,0,0,1,.51.88c.2,1.73.39,3.46.59,5.19a1,1,0,0,1-.3.95,2.83,2.83,0,0,1-1.3.4l.45,3.8q5.72-.68,11.46-1.13a10.83,10.83,0,0,0,3-.57A4.32,4.32,0,0,0,155.21,168.05ZM146,158.62l1.64-.15a1.1,1.1,0,0,1,1,.33,1.62,1.62,0,0,1,.38.94,1.6,1.6,0,0,1-.22,1,1.1,1.1,0,0,1-.92.49l-1.62.14C146.12,160.46,146,159.54,146,158.62Zm3.46,6.94a1.8,1.8,0,0,1-1.2.44l-1.57.13-.27-2.94,1.59-.14a1.74,1.74,0,0,1,1.27.25,1.63,1.63,0,0,1,.43,1.11A1.55,1.55,0,0,1,149.41,165.56Z" transform="translate(-73.53 -115.42)"/><path class="cls-1" d="M191.32,166.18l.15-2.62-1.23-.07c0,.87-.09,1.75-.14,2.62a.67.67,0,0,1-.15.44.48.48,0,0,1-.44.17.49.49,0,0,1-.41-.21.77.77,0,0,1-.11-.46c0-.18,0-.36,0-.54a6.07,6.07,0,0,0-.07-1.38,2.62,2.62,0,0,0-.45-1,2.43,2.43,0,0,0-.91-.74,4.32,4.32,0,0,0-1.51-.39v-.12a3.71,3.71,0,0,0,2.83-1,4.14,4.14,0,0,0,1-2.72,4.9,4.9,0,0,0-.19-1.74,3.09,3.09,0,0,0-.87-1.37,4.58,4.58,0,0,0-1.73-.94,10,10,0,0,0-2.7-.39q-5.82-.19-11.64-.16c0,1.27,0,2.55,0,3.83a2.77,2.77,0,0,1,1.37.24,1,1,0,0,1,.41.92c0,1.74,0,3.48,0,5.23a1,1,0,0,1-.4.91,2.83,2.83,0,0,1-1.33.25c0,1.27,0,2.55,0,3.83q4.65,0,9.3.1c0-1.28.07-2.56.1-3.83a2,2,0,0,1-1.11-.27.94.94,0,0,1-.3-.8l0-1.48h.26a3.31,3.31,0,0,1,.85.11,1.06,1.06,0,0,1,.56.39,2,2,0,0,1,.3.81,7.62,7.62,0,0,1,0,1.34c0,.26,0,.53,0,.79a4.59,4.59,0,0,0,.14,1.3,2.6,2.6,0,0,0,.58,1.1,3,3,0,0,0,1.19.77,6.88,6.88,0,0,0,2,.34,7.56,7.56,0,0,0,2.07-.16,3.66,3.66,0,0,0,1.39-.65,2.71,2.71,0,0,0,.79-1.05A3.93,3.93,0,0,0,191.32,166.18Zm-8.22-5.94a1.55,1.55,0,0,1-1.25.39l-.95,0c0-1.07,0-2.14.07-3.21l1,0a1.61,1.61,0,0,1,1.24.41,1.84,1.84,0,0,1,.3,1.26A1.78,1.78,0,0,1,183.1,160.24Z" transform="translate(-73.53 -115.42)"/><path class="cls-1" d="M171.94,163.08l-3.73.06a5.92,5.92,0,0,1,0,.9,1.16,1.16,0,0,1-.23.55.91.91,0,0,1-.46.29,3.35,3.35,0,0,1-.72.09l-1.91.05-.09-3c1.13,0,2.27-.07,3.41-.09,0-.61,0-1.22,0-1.83l-3.43.09c0-.91-.06-1.83-.08-2.74l1.95-.06a2.69,2.69,0,0,1,.74.06,1,1,0,0,1,.49.26,1.13,1.13,0,0,1,.25.55,5,5,0,0,1,.09.89l3.77-.05c0-1.88,0-3.75,0-5.63q-7.83.06-15.65.51c.07,1.28.14,2.55.22,3.83a2.89,2.89,0,0,1,1.38.16,1,1,0,0,1,.46.91l.27,5.21a1,1,0,0,1-.36.94,2.76,2.76,0,0,1-1.32.31c.07,1.28.15,2.55.22,3.83q7.44-.44,14.9-.49C172,166.84,172,165,171.94,163.08Z" transform="translate(-73.53 -115.42)"/><path class="cls-1" d="M81.52,188.39l.24.73.23.72A297.86,297.86,0,0,1,152,176l.72-.05c-1.39,3.35-2.63,6.71-3.66,10.05a9,9,0,0,0-.42,4.22,4.9,4.9,0,0,0,3.3,4c3.38,1.16,8.2-.74,10-5.43s3.6-9.2,5.47-13.52l.72,0q5.56-.1,11.15,0l.72,0c1.87,4.31,3.69,8.8,5.47,13.52s6.59,6.59,10,5.43a4.9,4.9,0,0,0,3.3-4,9,9,0,0,0-.42-4.22c-1-3.35-2.28-6.71-3.67-10.07l.73,0a298.43,298.43,0,0,1,70.22,13.83l.47-1.45h0A296.72,296.72,0,0,0,81.52,188.39Zm113.76,5.4c-3.18,1.1-7.71-.72-9.39-5.15-1.75-4.66-3.55-9.09-5.39-13.35l.79,0c.58,1.32,1.18,2.63,1.73,4,.35.83.7,1.66,1.06,2.48s.67,1.67,1,2.51a39.73,39.73,0,0,0,2.25,5,9.4,9.4,0,0,0,1.72,2.16,5.46,5.46,0,0,0,2.43,1.29,5.63,5.63,0,0,1-2.36-1.35,9.36,9.36,0,0,1-1.62-2.18,20.24,20.24,0,0,1-1.13-2.46c-.17-.41-.32-.84-.48-1.26s-.31-.85-.47-1.27c-.32-.84-.63-1.69-1-2.53l-1-2.5c-.5-1.29-1-2.55-1.58-3.82h.28c1.75,4.09,3.47,8.33,5.15,12.78a7.2,7.2,0,0,0,7.15,4.83,3.65,3.65,0,0,0,3.46-3.1,8,8,0,0,0-.38-3.6c-1.07-3.44-2.36-6.9-3.8-10.35l.35,0c1.43,3.41,2.69,6.83,3.75,10.24C199.05,190,198.09,192.83,195.28,193.79Zm-1.06-5.54a1.3,1.3,0,1,1-1.07-1.5A1.3,1.3,0,0,1,194.22,188.25Zm-.06,1.05a1.81,1.81,0,0,0,.52-1,1.78,1.78,0,0,0-1.45-2,1.81,1.81,0,0,0-1.28.28,1.76,1.76,0,1,1,2.21,2.73Zm-42,4.49c-2.81-1-3.77-3.81-2.59-7.62,1-3.4,2.32-6.82,3.74-10.23l.36,0c-1.45,3.44-2.73,6.89-3.8,10.33a8,8,0,0,0-.38,3.6,3.65,3.65,0,0,0,3.46,3.1,7.2,7.2,0,0,0,7.15-4.83c1.68-4.45,3.39-8.69,5.15-12.77h.28c-.54,1.26-1.08,2.53-1.58,3.81l-1,2.5c-.32.84-.63,1.69-.95,2.53-.16.42-.32.85-.47,1.27l-.48,1.26a20.24,20.24,0,0,1-1.13,2.46,9.36,9.36,0,0,1-1.62,2.18,5.63,5.63,0,0,1-2.36,1.35,5.46,5.46,0,0,0,2.43-1.29,9.1,9.1,0,0,0,1.71-2.16,38.41,38.41,0,0,0,2.26-5l1-2.51c.36-.82.71-1.65,1.06-2.48.55-1.33,1.14-2.64,1.73-4l.79,0c-1.84,4.26-3.64,8.69-5.39,13.34C159.82,193.07,155.29,194.89,152.11,193.79Zm1.82-7.69a1.75,1.75,0,0,1,1.51.47,1.81,1.81,0,0,0-1.28-.28,1.78,1.78,0,0,0-1.45,2,1.81,1.81,0,0,0,.52,1,1.76,1.76,0,0,1,.7-3.2Zm-.76,2.15a1.3,1.3,0,1,1,1.5,1.07A1.3,1.3,0,0,1,153.17,188.25Z" transform="translate(-73.53 -115.42)"/><path class="cls-1" d="M273.58,165.25h0l.47-1.45A324.24,324.24,0,0,0,182.16,148l-.75,0a181.82,181.82,0,0,1,14.45-20.38c2,.27,3.93.5,5.8.71a74.17,74.17,0,0,1,9.5,1.46,3.42,3.42,0,0,1,2,3.19,12.87,12.87,0,0,1-.64,3.74.84.84,0,0,0,.25.86c4.81,4.22,14.62,7.94,20,9.79,1.11.38,2.23.74,3.35,1.1,6.54,2,13,3.58,16.58,3.87A1.82,1.82,0,0,0,254,152a9.89,9.89,0,0,0,3.65-8.29,2.73,2.73,0,0,0-1.64-2.5c-2-.88-5.77-2.08-10.54-3.6-8.9-2.85-21.08-6.75-29.51-11-5.13-2.61-10.92-3.4-16.39-3.8a3.24,3.24,0,0,0-.67-3.38c-1-1-2.76-1.31-4.55.2-1,.87-2,1.77-3.06,2.67-5.91-.46-10.82-1.42-13.36-5.26a1.64,1.64,0,0,0-2.26-.69,1.78,1.78,0,0,0-.59,2.48c1.88,3.77,6.55,5.92,12.07,7.3a154.76,154.76,0,0,0-13.5,14.85,154.66,154.66,0,0,0-13.49-14.85c5.52-1.38,10.19-3.53,12.07-7.3a1.78,1.78,0,0,0-.59-2.48,1.66,1.66,0,0,0-2.27.69c-2.53,3.84-7.44,4.8-13.35,5.26-1-.9-2-1.8-3.06-2.67-1.79-1.51-3.58-1.19-4.55-.2a3.24,3.24,0,0,0-.67,3.38c-5.47.4-11.26,1.19-16.39,3.8-8.43,4.3-20.61,8.2-29.51,11-4.77,1.52-8.53,2.72-10.54,3.6a2.73,2.73,0,0,0-1.64,2.5A9.89,9.89,0,0,0,93.35,152a1.82,1.82,0,0,0,1.28.38c3.54-.29,10-1.82,16.58-3.87,1.12-.36,2.24-.72,3.35-1.1,5.41-1.85,15.22-5.57,20-9.79a.84.84,0,0,0,.25-.86,12.87,12.87,0,0,1-.64-3.74,3.42,3.42,0,0,1,2-3.19,73.89,73.89,0,0,1,9.5-1.46c1.87-.21,3.83-.44,5.8-.71A179.76,179.76,0,0,1,166,148l-.75,0a324,324,0,0,0-91.7,15.75l.24.73.2.64,0,.08h0A321,321,0,0,1,273.58,165.25Zm-139.29-28c-7.72,6.74-31.36,14-39.7,14.64a1.3,1.3,0,0,1-1-.29,9.44,9.44,0,0,1-3.48-7.92,2.29,2.29,0,0,1,1.36-2.08c2-.86,5.75-2.06,10.5-3.58,8.91-2.86,21.12-6.76,29.58-11.08a28.29,28.29,0,0,1,4.4-1.77,52.18,52.18,0,0,1,12-2,4.43,4.43,0,0,0,.61.94l1.07,1.27-.35,0c-1.95.19-3.91.41-5.88.73a40.63,40.63,0,0,0-5.91,1.36,50.32,50.32,0,0,1,5.93-1.07c2-.25,3.91-.43,5.86-.62l.65-.07.16.2h0c-2.65.27-5.31.49-8,.88-.66.11-1.34.19-2,.33l-1,.2-1,.25-.5.13-.49.17c-.32.11-.66.21-1,.34a6.66,6.66,0,0,1-1,.3,1.94,1.94,0,0,1-.68,0,2,2,0,0,0,.68,0,5,5,0,0,0,1-.25c.33-.12.66-.2,1-.3l.49-.14.5-.12,1-.21,1-.17c.66-.12,1.34-.18,2-.28,2.67-.32,5.32-.5,8-.77l.35,0,.17.21c-.69.08-1.39.16-2.08.22-2.09.18-4.19.28-6.29.57-1,.13-2.09.31-3.13.53-.52.1-1,.23-1.56.35s-1,.27-1.54.42a4.68,4.68,0,0,1-1.51.31,1,1,0,0,1-.63-.27.83.83,0,0,1-.19-.65,2,2,0,0,1,.76-1.28,4.74,4.74,0,0,1,1.38-.76,24.77,24.77,0,0,1,3.11-.92c1.06-.24,2.13-.45,3.22-.64-1.09.16-2.17.33-3.23.55a24.22,24.22,0,0,0-3.14.84,5.13,5.13,0,0,0-1.45.75,2.25,2.25,0,0,0-.88,1.39,1.09,1.09,0,0,0,.2.85,1.06,1.06,0,0,0,.35.28,1.62,1.62,0,0,0,.43.12,2.32,2.32,0,0,0,.83-.07l.78-.2c1-.28,2-.52,3.07-.73s2.07-.37,3.11-.5c2.07-.27,4.16-.37,6.26-.54.81-.07,1.62-.16,2.44-.26l.28.33c-1.87.25-3.73.47-5.52.67a73.62,73.62,0,0,0-9.56,1.47c-1.43.38-2.4,2.23-2.38,3.64a14.08,14.08,0,0,0,.66,3.87A.4.4,0,0,1,134.29,137.26ZM149,123.83a3,3,0,0,1-.17-4.15c.76-.77,2.25-1.17,3.92.23a150.67,150.67,0,0,1,20.7,21.37,3.11,3.11,0,0,0-.23.28,149.06,149.06,0,0,0-20.49-21.13,2.2,2.2,0,0,0-2.14-.63,1.62,1.62,0,0,0-1,1.25,2.46,2.46,0,0,0,.67,2A182.46,182.46,0,0,1,168.28,148h-.45c-2.22-3.62-4.54-7.18-7-10.7-2-2.92-4.18-5.78-6.38-8.64l-1.69-2.12c-.29-.35-.57-.7-.85-1.06-.15-.18-.28-.35-.44-.53l-.46-.5a8.16,8.16,0,0,1-1.57-2.21,2.36,2.36,0,0,1-.17-1.34,1.94,1.94,0,0,1,.27-.63,2.82,2.82,0,0,1,.47-.51,2.9,2.9,0,0,0-.49.5,2,2,0,0,0-.29.62,2.37,2.37,0,0,0,.11,1.37,8,8,0,0,0,1.5,2.29l.44.51c.14.16.28.35.41.53l.81,1.08c.55.71,1.09,1.43,1.62,2.15,2.11,2.89,4.19,5.78,6.15,8.72Q163.75,142.7,167,148h-.45A181.88,181.88,0,0,0,149,123.83Zm49.49,0A181.23,181.23,0,0,0,180.88,148l-.44,0q3.19-5.3,6.68-10.48c2-2.94,4-5.83,6.15-8.72.53-.72,1.07-1.44,1.62-2.15l.81-1.08a5.34,5.34,0,0,1,.41-.53l.44-.51a7.73,7.73,0,0,0,1.49-2.29,2.29,2.29,0,0,0,.12-1.37,1.78,1.78,0,0,0-.3-.62,2.52,2.52,0,0,0-.48-.5,2.82,2.82,0,0,1,.47.51,2.18,2.18,0,0,1,.27.63,2.36,2.36,0,0,1-.17,1.34,8.16,8.16,0,0,1-1.57,2.21l-.46.5c-.16.18-.29.35-.44.53-.28.36-.56.71-.85,1.06l-1.69,2.12c-2.21,2.86-4.36,5.72-6.38,8.64-2.46,3.52-4.78,7.08-7,10.7h-.45a182.36,182.36,0,0,1,18-24.93,2.49,2.49,0,0,0,.67-2,1.62,1.62,0,0,0-1-1.25,2.2,2.2,0,0,0-2.14.63A151.23,151.23,0,0,0,169.37,148H169a152.74,152.74,0,0,1,25.74-28.06c1.67-1.4,3.16-1,3.92-.23A3,3,0,0,1,198.44,123.83Zm12.95,1.35a28.29,28.29,0,0,1,4.4,1.77c8.46,4.32,20.67,8.22,29.58,11.08,4.75,1.52,8.51,2.72,10.5,3.58a2.29,2.29,0,0,1,1.36,2.08,9.44,9.44,0,0,1-3.48,7.92,1.3,1.3,0,0,1-.95.29c-8.34-.69-32-7.9-39.7-14.64a.4.4,0,0,1-.1-.39,14.08,14.08,0,0,0,.66-3.87c0-1.41-.95-3.26-2.38-3.64a73.62,73.62,0,0,0-9.56-1.47c-1.79-.2-3.65-.42-5.52-.67l.28-.33c.82.1,1.63.19,2.44.26,2.1.17,4.19.27,6.26.54,1,.13,2.08.3,3.11.5s2.05.45,3.07.73l.78.2a2.32,2.32,0,0,0,.83.07,1.62,1.62,0,0,0,.43-.12,1.06,1.06,0,0,0,.35-.28,1.09,1.09,0,0,0,.2-.85,2.29,2.29,0,0,0-.88-1.39,5.13,5.13,0,0,0-1.45-.75,24.22,24.22,0,0,0-3.14-.84c-1.07-.22-2.14-.39-3.23-.55,1.09.19,2.16.4,3.22.64a24.77,24.77,0,0,1,3.11.92,4.74,4.74,0,0,1,1.38.76,2,2,0,0,1,.76,1.28.83.83,0,0,1-.19.65,1,1,0,0,1-.63.27,4.68,4.68,0,0,1-1.51-.31c-.51-.15-1-.28-1.54-.42s-1-.25-1.56-.35c-1-.22-2.08-.4-3.13-.53-2.1-.29-4.21-.39-6.29-.57-.7-.06-1.39-.14-2.09-.22l.18-.21.34,0c2.66.27,5.31.45,8,.77.66.1,1.34.16,2,.28l1,.17,1,.21.5.12.49.14c.33.1.66.18,1,.3a4.82,4.82,0,0,0,1,.25,2,2,0,0,0,.68,0,1.94,1.94,0,0,1-.68,0,6.66,6.66,0,0,1-1-.3c-.32-.13-.66-.23-1-.34l-.49-.17-.51-.13-1-.25-1-.2c-.67-.14-1.35-.22-2-.33-2.69-.39-5.35-.61-8-.88h0l.17-.2.65.07c1.95.19,3.89.37,5.86.62a50.32,50.32,0,0,1,5.93,1.07,40.63,40.63,0,0,0-5.91-1.36c-2-.32-3.93-.54-5.89-.73l-.34,0,1.07-1.27a4.43,4.43,0,0,0,.61-.94A52.18,52.18,0,0,1,211.39,125.18Zm-55.83.47a.85.85,0,0,1-1.68-.28.85.85,0,0,1,1.68.28Zm.7-.11a1.3,1.3,0,0,1-.63.89,1.29,1.29,0,0,0-1.58-2,1.29,1.29,0,0,1,1.13-.38A1.32,1.32,0,0,1,156.26,125.54Zm35.57.11a.85.85,0,1,1,1,.7A.85.85,0,0,1,191.83,125.65Zm1.51-1.25a1.29,1.29,0,0,0-1.58,2,1.3,1.3,0,0,1-.63-.89,1.32,1.32,0,0,1,1.08-1.52A1.3,1.3,0,0,1,193.34,124.4Zm-4.5.11c-.86-.11-1.72-.22-2.59-.38.82.2,1.63.37,2.45.52l-.15.14a40.85,40.85,0,0,1-7.06-1.92A35.55,35.55,0,0,0,188.3,125a.93.93,0,0,1-.14.14c-.57-.12-1.14-.26-1.7-.4q-1.53-.41-3-.93a25.88,25.88,0,0,1-2.91-1.27,14.72,14.72,0,0,1-2.67-1.77,8.63,8.63,0,0,1-2-2.48,8.81,8.81,0,0,0,2,2.57,14.5,14.5,0,0,0,2.67,1.86,24.19,24.19,0,0,0,2.93,1.34c1,.38,2,.69,3.05,1,.47.13.94.25,1.42.36-.1.1-.2.18-.29.28-5.53-1.35-10.21-3.44-12.05-7.14a1.33,1.33,0,0,1,.39-1.87,1.22,1.22,0,0,1,1.65.54h0c2.58,3.91,7.42,5,13.26,5.43C190.17,123.26,189.5,123.89,188.84,124.51Zm-19-7.29h0a1.22,1.22,0,0,1,1.65-.54,1.33,1.33,0,0,1,.39,1.87c-1.84,3.7-6.52,5.79-12,7.14-.09-.1-.19-.18-.29-.28.48-.11,1-.23,1.42-.36,1-.29,2-.6,3-1a24.92,24.92,0,0,0,2.93-1.34,14.5,14.5,0,0,0,2.67-1.86,8.81,8.81,0,0,0,2-2.57,8.63,8.63,0,0,1-2.05,2.48,14.72,14.72,0,0,1-2.67,1.77,25.88,25.88,0,0,1-2.91,1.27q-1.5.53-3,.93c-.57.14-1.13.28-1.7.4a.93.93,0,0,1-.14-.14,35.55,35.55,0,0,0,6.81-2.14,40.85,40.85,0,0,1-7.06,1.92l-.15-.14c.82-.15,1.63-.32,2.45-.52-.87.16-1.73.27-2.59.38-.66-.62-1.33-1.25-2-1.86C162.38,122.17,167.22,121.13,169.8,117.22Z" transform="translate(-73.53 -115.42)"/></g></svg>